<?xml version="1.0" encoding="utf-8"?>
<svg viewBox="0 0 586.718 554.666" width="586.718" height="554.666" xmlns="http://www.w3.org/2000/svg">
  <defs>
    <style>.cls-1,.cls-3,.cls-4{fill:#8982bc}.cls-1{opacity:.17}.cls-2{fill:#ddd6ff}.cls-14,.cls-3{opacity:.18}.cls-6{fill:#624fb5}.cls-7{fill:#fff}.cls-12,.cls-29{fill:#c4b9ff}.cls-13{fill:#fe9887}.cls-15{fill:#3f327a}.cls-16{fill:#f7d3a9}.cls-17{fill:#ffc359}.cls-18{fill:#353e70}.cls-19{fill:#d69e43}.cls-21{fill:#2c2656}.cls-23{fill:#ce6c5f}.cls-24{fill:#453c87}.cls-25{fill:#dba246}.cls-26{fill:#d3ab84}.cls-28{fill:#232049}.cls-29{opacity:.36}.cls-30{fill:#58bb85}.cls-33{fill:#ffd052}.cls-35{fill:#40337b}</style>
  </defs>
  <g id="Group_456" data-name="Group 456" transform="matrix(1, 0, 0, 1, -0.018, -0.097)">
    <ellipse id="Ellipse_20" data-name="Ellipse 20" class="cls-1" cx="30.561" cy="2.834" rx="30.561" ry="2.834" transform="translate(126.554 549.094)"/>
    <path id="Path_650" data-name="Path 650" class="cls-1" d="M110.622 404.034c0 1.6-13.679 2.834-30.561 2.834S49.5 405.636 49.5 404.034s13.679-2.834 30.561-2.834 30.561 1.232 30.561 2.834z" transform="translate(11.495 93.18)"/>
    <ellipse id="Ellipse_21" data-name="Ellipse 21" class="cls-1" cx="37.955" cy="2.834" rx="37.955" ry="2.834" transform="translate(437.958 499.309)"/>
    <path id="Path_651" data-name="Path 651" class="cls-1" d="M235.529 403.166c0 1.356-12.077 2.465-26.864 2.465s-26.864-1.109-26.864-2.465 12.077-2.465 26.864-2.465c14.91-.122 26.864.987 26.864 2.465z" transform="translate(42.23 93.062)"/>
    <g id="Group_310" data-name="Group 310" transform="translate(123.35 179.278)">
      <path id="Path_652" data-name="Path 652" class="cls-2" d="M101.4 146v313.746h333.339V156.475z" transform="translate(-99.798 -145.384)"/>
      <path id="Path_653" data-name="Path 653" class="cls-3" d="M174.729 333.3l-4.929 85.153 167.348-2.711z" transform="translate(-83.908 -101.872)"/>
      <path id="Path_654" data-name="Path 654" class="cls-4" d="M176.018 419.732l-2.218-84.783 159.584-8.749 2.834 91.191z" transform="translate(-82.979 -103.522)"/>
      <path id="Path_655" data-name="Path 655" class="cls-3" d="M220.3 237.464l1.848 79.237 164.76-1.356-7.64-92.546z" transform="translate(-72.176 -127.543)"/>
      <path id="Path_656" data-name="Path 656" d="M100.1 164.478l334.941 2.341v-13.555L100.1 145.5z" transform="translate(-100.1 -145.5)" fill="#eff3fb"/>
      <path id="Path_657" data-name="Path 657" class="cls-6" d="M100.1 160.9v27.48h334.941v-25.139z" transform="translate(-100.1 -141.922)" style="fill: rgb(47, 57, 102);"/>
      <circle id="Ellipse_22" data-name="Ellipse 22" class="cls-7" cx="9.735" cy="9.735" r="9.735" transform="rotate(-76.761 35.793 6.751)"/>
      <path id="Path_658" data-name="Path 658" class="cls-7" d="M144.3 169.4v6.654h48.8V169.4" transform="translate(-89.832 -139.948)"/>
      <path id="Path_659" data-name="Path 659" class="cls-7" d="M206 165.6v17.745h123.477v-16.266z" transform="translate(-75.498 -140.831)"/>
      <text id="Text" transform="translate(138.714 35.805)" fill="#4d7eb7" font-size="7" font-family="Gilroy-Light,Gilroy" font-weight="300" style="white-space: pre;"><tspan x="0" y="0">Text</tspan></text>
      <g id="Group_309" data-name="Group 309" transform="translate(9.242 8.626)">
        <circle id="Ellipse_23" data-name="Ellipse 23" cx="2.095" cy="2.095" r="2.095" fill="#fc846d"/>
        <circle id="Ellipse_24" data-name="Ellipse 24" cx="2.095" cy="2.095" r="2.095" transform="translate(9.612)" fill="#f9d452"/>
        <path id="Path_660" data-name="Path 660" d="M127.39 154.595a2.095 2.095 0 1 1-2.095-2.095 2.006 2.006 0 0 1 2.095 2.095z" transform="translate(-103.976 -152.5)" fill="#57be8b"/>
      </g>
      <path id="Rectangle_23" data-name="Rectangle 23" class="cls-12" transform="translate(28.466 68.27)" d="M0 0h4.436v56.193H0z"/>
      <path id="Path_661" data-name="Path 661" class="cls-4" d="M134.5 204.439v4.683h60.876l.739-5.422z" transform="translate(-92.109 -131.98)"/>
      <path id="Path_662" data-name="Path 662" class="cls-4" d="M217.9 199.316V204h169.689l2.095-5.3z" transform="translate(-72.734 -133.141)"/>
      <path id="Path_663" data-name="Path 663" class="cls-4" d="M217.9 302.816v4.684h169.689l2.095-5.3z" transform="translate(-72.734 -109.097)"/>
      <path id="Path_664" data-name="Path 664" class="cls-4" d="M217.9 212.416v4.684h64.573l.863-5.3z" transform="translate(-72.734 -130.098)"/>
      <path id="Path_665" data-name="Path 665" class="cls-4" d="M217.9 316.139v4.683h64.573l.863-5.422z" transform="translate(-72.734 -106.031)"/>
      <path id="Path_666" data-name="Path 666" class="cls-4" d="M135 216.1v4.806h60.753l.246-4.313z" transform="translate(-91.992 -129.099)"/>
      <path id="Path_667" data-name="Path 667" class="cls-4" d="M134.8 228.8v4.683h60.753l.246-4.313z" transform="translate(-92.039 -126.149)"/>
      <path id="Path_668" data-name="Path 668" class="cls-4" d="M134.8 242.7v4.806h60.753l.246-4.313z" transform="translate(-92.039 -122.92)"/>
      <path id="Path_669" data-name="Path 669" class="cls-13" d="M220.3 233.988l6.9 83.674L386.292 304.6l-7.024-85.4z" transform="translate(-72.176 -128.379)" style="fill: rgba(240, 133, 25, 0.67);"/>
    </g>
    <g id="Group_311" data-name="Group 311" class="cls-14" transform="translate(411.495 345.994)">
      <path id="Path_670" data-name="Path 670" class="cls-4" d="M336.852 292.51a35.406 35.406 0 0 1-2.834-8.626 3 3 0 0 1 0-1.479 2.484 2.484 0 0 1 2.711-1.6 4.608 4.608 0 0 1 2.834 1.725c.739.863 1.479 1.848 2.218 2.588a17.638 17.638 0 0 0 1.848 1.356 33.959 33.959 0 0 0 4.806 2.218 7.278 7.278 0 0 1 2.958 1.356 9.277 9.277 0 0 1-3.7.493 45.36 45.36 0 0 0-11.46 1.232 1.182 1.182 0 0 1 1.109-.246" transform="translate(-333.925 -280.787)"/>
    </g>
    <g id="Group_312" data-name="Group 312" class="cls-14" transform="translate(423.229 301.741)">
      <path id="Path_671" data-name="Path 671" class="cls-4" d="M357.068 280.766c-3.081-1.6-3.943-5.422-4.806-8.749a60.5 60.5 0 0 0-7.271-17.5 10.141 10.141 0 0 1-1.479-3.081 5.478 5.478 0 0 1 2.834-5.545 8.939 8.939 0 0 1 6.408-.739z" transform="translate(-343.447 -244.876)"/>
    </g>
    <g id="Group_354" data-name="Group 354" transform="translate(414.753 303.236)">
      <g id="Group_338" data-name="Group 338">
        <path id="Path_672" data-name="Path 672" class="cls-2" d="M366.3 380.679l1.972 3.2 2.465-1.232-2.218-3.45z" transform="translate(-329.662 -215.167)"/>
        <path id="Path_673" data-name="Path 673" class="cls-15" d="M377.82 389.606s-10.968-2.588-12.693-1.232 12.693 3.2 12.693 3.2z" transform="translate(-329.968 -213.127)"/>
        <path id="Path_674" data-name="Path 674" class="cls-16" d="M343.508 289.835s.123-5.545-.246-5.545c-.986-.246-1.109 2.588-1.109 2.588s-1.725-5.422-2.465-5.176c-.493.123.123 3.327.123 3.327s-1.356-2.465-2.095-2.341c-.616.123.739 3.574.739 3.574s-1.232-1.6-1.848-1.479c-.493.123 3.943 7.517 3.943 7.517z" transform="translate(-336.569 -237.819)"/>
        <path id="Path_675" data-name="Path 675" class="cls-15" d="M363.1 324.121s-17.376 21.073-8.749 45.842c8.749 24.769 14.541 27.357 14.541 27.357l5.052-2.588s-9.735-23.167-10.1-31.547c-.37-7.64 12.939-25.632 12.939-25.632L374.07 405.7l6.408.863s17.129-76.4 15.281-82.318c-1.726-6.162-9.366-14.789-32.659-.124z" transform="translate(-332.996 -229.837)"/>
        <path id="Path_676" data-name="Path 676" class="cls-17" d="M362.337 302.84l3.82 28.836 31.177-3.7L384.642 283l-9.366 1.479-6.654.739c-3.82.493-6.162 1.109-8.873 3.82L348.9 301.485l-5.422-12.939-4.683 2.341s3.82 23.537 9.982 21.2c4.195-1.607 13.56-9.247 13.56-9.247z" transform="translate(-336.051 -237.515)"/>
        <path id="Path_677" data-name="Path 677" class="cls-17" d="M354.39 253.8s6.9 17.376 7.764 20.087 19.84 15.9 19.84 15.9l-9.366 4.313-18.361-17.006L350.2 253.8h4.19z" transform="translate(-333.402 -244.299)"/>
        <g id="Group_313" data-name="Group 313" transform="translate(25.387 25.145)">
          <path id="Path_678" data-name="Path 678" class="cls-16" d="M359.918 268.7l-2.588 9.119a3.76 3.76 0 0 0 2.588 4.683l1.232.37v6.528h5.55a3.576 3.576 0 0 0 3.574-3.574v-14.785z" transform="translate(-357.17 -265.983)"/>
          <path id="Path_679" data-name="Path 679" class="cls-18" d="M365.164 283.877c-.986-.739-2.465-2.095-2.465-3.943 0 0 3.82-.123 2.834-2.834-.616-1.6-2.834-.37-2.834-.37s.863-3.327.37-4.436c0 0-6.654 0-5.545-3.943 0 0 1.848-1.725 6.038-1.848 4.19-.246 6.408 6.778 6.408 6.778l-3.451 10.1c-.369.619-.985.865-1.355.496z" transform="translate(-357.117 -266.495)"/>
        </g>
        <path id="Path_680" data-name="Path 680" class="cls-16" d="M350.928 255.591s-3.45-4.313-3.327-4.56c.616-.863 2.465 1.232 2.465 1.232s-2.095-5.3-1.232-5.669c.493-.123 1.848 2.711 1.848 2.711s-.493-2.834.123-3.2c.616-.246 1.6 3.2 1.6 3.2s0-1.972.616-2.218c.37-.123 1.6 8.38 1.6 8.38h-3.7z" transform="translate(-334.007 -246.09)"/>
        <g id="Group_314" data-name="Group 314" transform="translate(25.664 60.353)">
          <path id="Path_681" data-name="Path 681" class="cls-19" d="M365.041 295.108c0 .123-.37.246-1.109.863-.616.493-1.6 1.232-2.588 1.972a19.273 19.273 0 0 1-3.943 2.465c-.123-.123 1.6-1.356 3.574-2.834.986-.739 1.972-1.356 2.711-1.848.863-.618 1.355-.741 1.355-.618z" transform="translate(-357.395 -295.065)"/>
        </g>
        <g id="Group_315" data-name="Group 315" transform="translate(29.49 42.774)">
          <path id="Path_682" data-name="Path 682" class="cls-19" d="M369.5 280.8h.123c.123 0 .123.246.246.37a5.526 5.526 0 0 1-.123 1.356A4.9 4.9 0 0 1 369 284.5a6.172 6.172 0 0 1-.863.986 3.853 3.853 0 0 1-1.232.616 16.647 16.647 0 0 1-4.56.616c-1.109 0-1.848-.123-1.848-.246s.739 0 1.848-.123a22.565 22.565 0 0 0 4.313-.739 3.484 3.484 0 0 0 1.848-1.356 5.81 5.81 0 0 0 .739-1.848 6.355 6.355 0 0 0 .247-1.356c.127-.127-.119-.25.008-.25z" transform="translate(-360.5 -280.8)"/>
        </g>
        <g id="Group_316" data-name="Group 316" transform="translate(12.238 63.846)">
          <path id="Path_683" data-name="Path 683" class="cls-19" d="M346.746 302.09a.54.54 0 0 1 .123.37h-.246a9.4 9.4 0 0 1-.123-2.095 6.743 6.743 0 0 1 .493-2.465 6.882 6.882 0 0 1 0 2.465c0 .863-.123 1.725-.123 2.095h-.246a.54.54 0 0 1 .122-.37z" transform="translate(-346.5 -297.9)"/>
        </g>
        <g id="Group_317" data-name="Group 317" transform="translate(12.773 63.23)">
          <path id="Path_684" data-name="Path 684" class="cls-19" d="M347.755 301.22a5.629 5.629 0 0 1-.616-1.848c-.246-1.109-.246-1.972-.123-1.972a5.629 5.629 0 0 1 .616 1.848 6.07 6.07 0 0 1 .123 1.972z" transform="translate(-346.934 -297.4)"/>
        </g>
        <g id="Group_318" data-name="Group 318" transform="translate(2.503 52.239)">
          <path id="Path_685" data-name="Path 685" class="cls-19" d="M343.9 288.5a12.052 12.052 0 0 1-2.588 1.232 10.568 10.568 0 0 1-2.711.739 12.055 12.055 0 0 1 2.588-1.232 10.57 10.57 0 0 1 2.711-.739z" transform="translate(-338.6 -288.481)"/>
        </g>
        <g id="Group_319" data-name="Group 319" transform="translate(29.718 87.753)">
          <path id="Path_686" data-name="Path 686" class="cls-19" d="M390.772 317.3s-.37.246-.986.616a16.86 16.86 0 0 1-3.081 1.109c-2.711.739-6.531 1.6-10.721 2.341-2.095.37-4.067.739-5.915.986s-3.45.493-4.929.616a8.882 8.882 0 0 1-3.327-.246c-.739-.123-1.232-.37-1.109-.37a7.966 7.966 0 0 0 1.232.246 14.606 14.606 0 0 0 3.327 0 41.933 41.933 0 0 0 4.806-.739c1.848-.246 3.82-.616 5.915-.986 4.19-.739 8.01-1.6 10.721-2.218a31.372 31.372 0 0 0 3.081-.986 2.974 2.974 0 0 0 .986-.369z" transform="translate(-360.685 -317.3)"/>
        </g>
        <path id="Path_687" data-name="Path 687" d="M364.7 294.9s-1.849 13.432-5.669 15.527l-1.232-9.858z" transform="translate(-331.637 -234.751)" opacity=".25" fill="#8982bc"/>
        <path id="Path_688" data-name="Path 688" class="cls-18" d="M358.916 271.672a7.518 7.518 0 0 1-1.6-1.848c-.246-.863.123-2.958.863-3.45.863-.493 1.972 0 2.958.123 1.479.246 2.958-.37 4.56-.493 1.479-.123 3.327.37 3.82 1.725.123.246.123.616.493.739h.37c1.232-.123 1.972 1.232 1.972 2.465a26.231 26.231 0 0 1-.986 3.327c-.616 2.465.493 5.3-.616 7.64-.863 1.848-3.574 3.45-5.422 2.095l2.341-10.6z" transform="translate(-331.767 -241.468)"/>
        <path id="Path_689" data-name="Path 689" class="cls-15" d="M371.948 382s-10.228 4.56-10.844 6.654 12.077-5.176 12.077-5.176z" transform="translate(-330.874 -214.517)"/>
        <g id="Group_320" data-name="Group 320" transform="translate(24.561 130.131)">
          <path id="Path_690" data-name="Path 690" class="cls-21" d="M362.785 351.7c.123.123-1.232.986-2.958 1.972a8.683 8.683 0 0 1-3.327 1.356 24.435 24.435 0 0 1 3.081-1.848 15.681 15.681 0 0 1 3.204-1.48z" transform="translate(-356.5 -351.689)"/>
        </g>
        <g id="Group_321" data-name="Group 321" transform="translate(26.275 133.071)">
          <path id="Path_691" data-name="Path 691" class="cls-21" d="M362.338 354.106c0 .123-.986.493-2.218 1.232s-2.095 1.356-2.218 1.232.739-.986 1.972-1.725a5.3 5.3 0 0 1 2.464-.739z" transform="translate(-357.89 -354.075)"/>
        </g>
        <g id="Group_322" data-name="Group 322" transform="translate(46.373 136.657)">
          <path id="Path_692" data-name="Path 692" class="cls-21" d="M381.224 359.222a10.731 10.731 0 0 1-3.574-.739A12.266 12.266 0 0 1 374.2 357a19.985 19.985 0 0 1 3.574.986 24.13 24.13 0 0 1 3.45 1.236z" transform="translate(-374.2 -356.985)"/>
        </g>
        <g id="Group_323" data-name="Group 323" transform="translate(47.112 134.937)">
          <path id="Path_693" data-name="Path 693" class="cls-21" d="M381.578 358.56a10.681 10.681 0 0 1-3.578-1.109 10.041 10.041 0 0 1-3.2-1.848 22.646 22.646 0 0 1 3.45 1.356 28.072 28.072 0 0 1 3.328 1.601z" transform="translate(-374.8 -355.589)"/>
        </g>
        <g id="Group_337" data-name="Group 337" transform="translate(23.648 94.038)">
          <g id="Group_324" data-name="Group 324" transform="translate(12.942 71.689)">
            <path id="Path_694" data-name="Path 694" class="cls-21" d="M366.309 380.606c.123-.123.37.123.616.616.246.37.37.739.246.863s-.37-.123-.616-.616-.369-.863-.246-.863z" transform="translate(-366.261 -380.574)"/>
          </g>
          <g id="Group_325" data-name="Group 325" transform="translate(9.663 65.913)">
            <path id="Path_695" data-name="Path 695" class="cls-21" d="M363.6 375.9c.123-.123.616.493.986 1.356.493.739.739 1.479.616 1.6s-.616-.493-.986-1.356a7.2 7.2 0 0 1-.616-1.6z" transform="translate(-363.6 -375.887)"/>
          </g>
          <g id="Group_326" data-name="Group 326" transform="translate(6.797 60.013)">
            <path id="Path_696" data-name="Path 696" class="cls-21" d="M361.306 371.1a4.031 4.031 0 0 1 .863 1.356c.37.863.616 1.479.493 1.6a4.031 4.031 0 0 1-.863-1.356c-.37-.737-.616-1.477-.493-1.6z" transform="translate(-361.274 -371.1)"/>
          </g>
          <g id="Group_327" data-name="Group 327" transform="translate(4.331 53.975)">
            <path id="Path_697" data-name="Path 697" class="cls-21" d="M359.306 366.2a3.822 3.822 0 0 1 .863 1.479c.37.863.493 1.6.37 1.6a3.822 3.822 0 0 1-.863-1.479c-.247-.861-.493-1.6-.37-1.6z" transform="translate(-359.273 -366.2)"/>
          </g>
          <g id="Group_328" data-name="Group 328" transform="translate(2.344 47.69)">
            <path id="Path_698" data-name="Path 698" class="cls-21" d="M357.709 361.1a2.91 2.91 0 0 1 .739 1.479c.246.863.37 1.6.246 1.6a2.91 2.91 0 0 1-.739-1.479c-.246-.861-.369-1.6-.246-1.6z" transform="translate(-357.661 -361.1)"/>
          </g>
          <g id="Group_329" data-name="Group 329" transform="translate(.739 41.282)">
            <path id="Path_699" data-name="Path 699" class="cls-21" d="M356.41 355.9c.123 0 .37.616.616 1.6.246.863.246 1.6.123 1.6s-.37-.616-.616-1.6c-.123-.861-.247-1.6-.123-1.6z" transform="translate(-356.359 -355.9)"/>
          </g>
          <g id="Group_330" data-name="Group 330" transform="translate(0 34.751)">
            <path id="Path_700" data-name="Path 700" class="cls-21" d="M355.933 350.6c.123 0 .246.739.37 1.6 0 .863 0 1.6-.123 1.6s-.246-.739-.37-1.6 0-1.6.123-1.6z" transform="translate(-355.759 -350.6)"/>
          </g>
          <g id="Group_331" data-name="Group 331" transform="translate(.051 28.097)">
            <path id="Path_701" data-name="Path 701" class="cls-21" d="M356.17 345.2c.123 0 .123.739.123 1.6-.123.863-.246 1.6-.37 1.6s-.123-.739-.123-1.6c.123-.861.246-1.6.37-1.6z" transform="translate(-355.8 -345.2)"/>
          </g>
          <g id="Group_332" data-name="Group 332" transform="translate(.833 21.689)">
            <path id="Path_702" data-name="Path 702" class="cls-21" d="M357.255 340c.123 0 .123.739-.123 1.6a4.4 4.4 0 0 1-.616 1.6c-.123 0-.123-.739.123-1.6.246-.984.492-1.6.616-1.6z" transform="translate(-356.434 -340)"/>
          </g>
          <g id="Group_333" data-name="Group 333" transform="translate(2.593 15.404)">
            <path id="Path_703" data-name="Path 703" class="cls-21" d="M359.018 334.9c.123 0 0 .739-.37 1.6s-.616 1.479-.739 1.479 0-.739.37-1.6a2.91 2.91 0 0 1 .739-1.479z" transform="translate(-357.862 -334.9)"/>
          </g>
          <g id="Group_334" data-name="Group 334" transform="translate(5.072 9.489)">
            <path id="Path_704" data-name="Path 704" class="cls-21" d="M361.385 330.1c.123.123-.123.739-.493 1.6a2.685 2.685 0 0 1-.986 1.356c-.123 0 .123-.739.493-1.6.493-.863.863-1.356.986-1.356z" transform="translate(-359.874 -330.1)"/>
          </g>
          <g id="Group_335" data-name="Group 335" transform="translate(8.284 3.928)">
            <path id="Path_705" data-name="Path 705" class="cls-21" d="M364.353 325.6c.123.123-.246.739-.739 1.479s-.986 1.356-1.109 1.232.246-.739.739-1.479.986-1.352 1.109-1.232z" transform="translate(-362.481 -325.587)"/>
          </g>
          <g id="Group_336" data-name="Group 336" transform="translate(11.958)">
            <path id="Path_706" data-name="Path 706" class="cls-21" d="M366.618 322.4c.123.123 0 .493-.37.739-.246.37-.616.616-.739.493s0-.493.37-.739c.369-.37.616-.493.739-.493z" transform="translate(-365.462 -322.4)"/>
          </g>
        </g>
      </g>
      <g id="Group_353" data-name="Group 353" transform="translate(28.477 101.062)">
        <g id="Group_339" data-name="Group 339" transform="translate(34.397 8.379)">
          <path id="Path_707" data-name="Path 707" class="cls-4" d="M405.717 424.366c-.37.123-4.683-19.84-9.612-44.61-5.052-24.646-8.749-44.733-8.5-44.856.37-.123 4.683 19.84 9.612 44.61 5.05 24.769 8.87 44.732 8.5 44.856z" transform="translate(-387.591 -334.9)"/>
        </g>
        <g id="Group_340" data-name="Group 340" transform="translate(49.185 8.379)">
          <path id="Path_708" data-name="Path 708" class="cls-4" d="M417.717 424.366c-.37.123-4.683-19.84-9.612-44.61-5.052-24.646-8.749-44.733-8.5-44.856.37-.123 4.683 19.84 9.612 44.61 5.05 24.769 8.87 44.732 8.5 44.856z" transform="translate(-399.591 -334.9)"/>
        </g>
        <path id="Rectangle_24" data-name="Rectangle 24" class="cls-4" transform="translate(8.16)" d="M0 0h44.486v8.38H0z"/>
        <g id="Group_343" data-name="Group 343" transform="translate(0 4.313)">
          <g id="Group_341" data-name="Group 341" transform="translate(11.953)">
            <path id="Path_709" data-name="Path 709" class="cls-4" d="M385.548 331.6c.37 0-3.081 21.072-7.517 46.828-4.436 25.878-8.38 46.7-8.626 46.7-.37 0 3.081-21.072 7.517-46.951 4.437-25.751 8.257-46.7 8.626-46.577z" transform="translate(-369.378 -331.6)"/>
          </g>
          <g id="Group_342" data-name="Group 342">
            <path id="Path_710" data-name="Path 710" class="cls-4" d="M375.848 331.6c.37 0-3.081 21.072-7.517 46.828-4.436 25.878-8.38 46.7-8.626 46.7-.37 0 3.081-21.072 7.517-46.951 4.437-25.751 8.378-46.7 8.626-46.577z" transform="translate(-359.678 -331.6)"/>
          </g>
        </g>
        <path id="Path_711" data-name="Path 711" class="cls-4" d="M393.8 365.2h14.665l.739 3.45h-14.788z" transform="translate(-351.751 -319.481)"/>
        <g id="Group_344" data-name="Group 344" transform="translate(1.629 88.352)">
          <path id="Path_712" data-name="Path 712" class="cls-4" d="M373.2 399.924c0 .37-2.588.986-6.038 1.479-3.327.493-6.162.616-6.162.246s2.588-.986 6.038-1.479c3.328-.37 6.039-.492 6.162-.246z" transform="translate(-361 -399.796)"/>
        </g>
        <g id="Group_345" data-name="Group 345" transform="translate(2.861 80.501)">
          <path id="Path_713" data-name="Path 713" class="cls-4" d="M374.2 393.641c0 .37-2.588.986-6.038 1.479-3.327.493-6.162.616-6.162.246s2.588-.986 6.038-1.479c3.328-.493 6.162-.616 6.162-.246z" transform="translate(-362 -393.426)"/>
        </g>
        <g id="Group_346" data-name="Group 346" transform="translate(4.217 71.505)">
          <path id="Path_714" data-name="Path 714" class="cls-4" d="M375.3 386.34c0 .37-2.588.986-6.038 1.479-3.327.493-6.162.616-6.162.246s2.588-.986 6.038-1.479c3.328-.492 6.162-.615 6.162-.246z" transform="translate(-363.1 -386.126)"/>
        </g>
        <g id="Group_347" data-name="Group 347" transform="translate(5.819 62.51)">
          <path id="Path_715" data-name="Path 715" class="cls-4" d="M376.6 379.041c0 .37-2.588.986-6.038 1.479-3.327.493-6.162.616-6.162.246s2.588-.986 6.038-1.479c3.328-.493 6.039-.616 6.162-.246z" transform="translate(-364.4 -378.826)"/>
        </g>
        <g id="Group_348" data-name="Group 348" transform="translate(6.928 54.5)">
          <path id="Path_716" data-name="Path 716" class="cls-4" d="M377.5 372.541c0 .37-2.588.986-6.038 1.479-3.327.493-6.162.616-6.162.246s2.588-.986 6.038-1.479c3.328-.493 6.039-.616 6.162-.246z" transform="translate(-365.3 -372.326)"/>
        </g>
        <g id="Group_349" data-name="Group 349" transform="translate(8.9 46.366)">
          <path id="Path_717" data-name="Path 717" class="cls-4" d="M379.1 365.94c0 .37-2.588.986-6.038 1.479-3.327.493-6.162.616-6.162.247s2.588-.986 6.038-1.479 6.162-.616 6.162-.247z" transform="translate(-366.9 -365.726)"/>
        </g>
        <g id="Group_350" data-name="Group 350" transform="translate(10.255 37.617)">
          <path id="Path_718" data-name="Path 718" class="cls-4" d="M380.2 358.84c0 .37-2.588.986-6.038 1.479-3.327.493-6.162.616-6.162.246s2.588-.986 6.038-1.479c3.328-.492 6.162-.615 6.162-.246z" transform="translate(-368 -358.626)"/>
        </g>
        <g id="Group_351" data-name="Group 351" transform="translate(11.857 28.005)">
          <path id="Path_719" data-name="Path 719" class="cls-4" d="M381.5 351.04c0 .37-2.588.986-6.038 1.479-3.327.493-6.162.616-6.162.246s2.588-.986 6.038-1.479c3.328-.492 6.162-.615 6.162-.246z" transform="translate(-369.3 -350.826)"/>
        </g>
        <g id="Group_352" data-name="Group 352" transform="translate(13.952 17.284)">
          <path id="Path_720" data-name="Path 720" class="cls-4" d="M383.2 342.34c0 .37-2.588.986-6.038 1.479-3.327.493-6.162.616-6.162.246s2.588-.986 6.038-1.479c3.328-.492 6.039-.615 6.162-.246z" transform="translate(-371 -342.126)"/>
        </g>
      </g>
    </g>
    <g id="Group_365" data-name="Group 365" transform="translate(65.202 317.79)">
      <path id="Path_721" data-name="Path 721" class="cls-16" d="M54.006 332.693s-1.972 5.792-.616 9.982 2.711 2.711 2.711 2.711a6.728 6.728 0 0 1-.739-3.943 7.685 7.685 0 0 1 .739-3.081l1.109 4.929a25.044 25.044 0 0 0 .739-2.465c.37-1.479-.739-4.19-.493-5.669.246-1.356.739-2.958.739-2.958z" transform="translate(-52.914 -240.639)"/>
      <path id="Path_722" data-name="Path 722" class="cls-16" d="M119.253 272.514l.37-2.218s-2.218-4.929-1.6-5.915a24.578 24.578 0 0 1 2.958-3.081l1.356.246s2.465 3.2 2.711 4.313-1.232 4.929-2.218 7.887z" transform="translate(-37.814 -257.11)"/>
      <path id="Path_723" data-name="Path 723" d="M119.5 259.748l1.232 10.1 1.356-.246-1.356-9.982-.739-1.725z" transform="translate(-37.445 -257.9)" fill="#7fbbef"/>
      <path id="Path_724" data-name="Path 724" class="cls-16" d="M119.2 262.656l1.479-1.356a2.724 2.724 0 0 1-.863 3.081z" transform="translate(-37.515 -257.11)"/>
      <g id="Group_355" data-name="Group 355" transform="translate(45.209 173.386)">
        <path id="Path_725" data-name="Path 725" class="cls-16" d="M92.288 398.6l.123 3.7-2.588.37-.123-4.07z" transform="translate(-89.577 -398.6)"/>
        <path id="Path_726" data-name="Path 726" class="cls-15" d="M89.846 402.106s11.091-1.972 12.693-.616-12.939 2.588-12.939 2.588z" transform="translate(-89.6 -398.039)"/>
      </g>
      <g id="Group_356" data-name="Group 356" transform="translate(2.694 158.105)">
        <path id="Path_727" data-name="Path 727" class="cls-16" d="M61.306 388.418l-3.081 2.095-1.725-2.095 3.45-2.218z" transform="translate(-54.775 -386.2)"/>
        <path id="Path_728" data-name="Path 728" class="cls-15" d="M56.825 388s7.394 8.38 7.147 10.6c-.37 2.095-8.873-9.735-8.873-9.735z" transform="translate(-55.1 -385.782)"/>
      </g>
      <path id="Path_729" data-name="Path 729" class="cls-6" d="M104.321 323.9s9.242 8.5 9.489 40.3c.123 31.794-10.968 52.866-10.968 52.866h-7.764s12.816-39.927-1.6-66.3c0 0-4.806 30.808-30.315 54.345L57 398.578s18.854-23.66 18.978-53.112c0-5.792.986-8.873-.986-15.4z" transform="translate(-51.965 -242.568)"/>
      <path id="Path_730" data-name="Path 730" class="cls-13" d="M99.858 300.8s24.276-6.531 30.438-23.537l3.45-7.764 4.683 1.6s-1.232 31.177-31.3 39.68l-.493 1.848a51.561 51.561 0 0 0-.246 24.893l3.081 6.285-32.41 7.271s-4.067-15.9-.246-32.656c0 0-7.024-1.6-18.854 31.547l-4.56-.863s6.531-44.486 30.068-50.648z" transform="translate(-52.801 -255.205)"/>
      <g id="Group_357" data-name="Group 357" transform="translate(3.528 24.03)">
        <path id="Path_731" data-name="Path 731" class="cls-16" d="M93.5 280.1l1.848 8.5a3.614 3.614 0 0 1-2.711 4.19l-1.109.246-.37 5.915-8.256-.616 1.232-16.759z" transform="translate(-49.475 -276.773)"/>
        <path id="Path_732" data-name="Path 732" class="cls-18" d="M86.634 294.172s3.327-1.479 3.45-3.943c0 0-4.313-2.711-2.834-3.82s3.82 1.6 3.82 1.6-1.232-3.82-.739-4.806c0 0 6.038.37 5.3-3.2 0 0-1.6-1.6-5.422-2.095S83.8 283.7 83.8 283.7z" transform="translate(-49.266 -277.289)"/>
        <path id="Path_733" data-name="Path 733" class="cls-18" d="M90.633 278.386a4.953 4.953 0 0 0-3.2-.986 9.778 9.778 0 0 0-7.517 3.574 9.666 9.666 0 0 0-1.972 8.133 5.81 5.81 0 0 0 .739 1.848c.986 1.479 2.711 2.095 4.313 2.588 1.479.493 3.943 1.356 5.176.493 0 0-1.848-5.915-.739-9.489a22.663 22.663 0 0 1 3.2-6.161z" transform="translate(-50.677 -277.4)"/>
        <path id="Path_734" data-name="Path 734" class="cls-18" d="M83.779 283.5a5.55 5.55 0 0 0-7.517.986c-1.109 1.479-1.356 3.574-2.834 4.683-1.725 1.356-4.19.739-6.285.493-3.82-.246-7.887 1.356-9.982 4.56s-1.848 7.887.986 10.475a9.058 9.058 0 0 0 7.024 2.095 25.5 25.5 0 0 0 7.271-1.972c3.327-1.356 6.9-3.45 8.01-6.9.739-2.341.123-5.052.493-7.517.123-.739.37-1.6.986-1.848.493-.246 1.232 0 1.725 0a2.4 2.4 0 0 0 1.848-3.2 4.565 4.565 0 0 0-3.2-2.588" transform="translate(-55.777 -276.225)"/>
      </g>
      <path id="Path_735" data-name="Path 735" class="cls-6" d="M83.519 293.5a30.294 30.294 0 0 0-5.915 4.56 10.637 10.637 0 0 0-3.2 6.654c0 .616 0 1.356.493 1.725a3.09 3.09 0 0 0 .863.493c2.588.739 5.176-.863 7.394-2.341 3.7-2.465 7.517-4.929 10.351-8.38a.817.817 0 0 0 .246-.863 1.7 1.7 0 0 0-.493-.37c-2.465-.863-7.024-.739-9.735-1.479" transform="translate(-47.922 -249.63)"/>
      <g id="Group_358" data-name="Group 358" transform="translate(24.371 43.747)">
        <path id="Path_736" data-name="Path 736" class="cls-23" d="M94.391 296.6a1.525 1.525 0 0 0-.246.37 4.039 4.039 0 0 1-.739.986c-.123.246-.37.493-.493.739a5.36 5.36 0 0 0-.739.863c-.246.246-.493.616-.863.986a7.435 7.435 0 0 1-.986.986 26.006 26.006 0 0 1-5.422 4.313 16.989 16.989 0 0 1-3.7 1.725 12.8 12.8 0 0 1-4.313.863h-2.216a1.988 1.988 0 0 1-1.109-.37 1.657 1.657 0 0 1-.739-.863 3.435 3.435 0 0 1 .123-2.218c.246-.616.37-1.356.616-1.848a11.3 11.3 0 0 1 2.095-3.081c.739-.863 1.479-1.6 2.218-2.341a60.894 60.894 0 0 1 3.45-3.2c.37-.37.739-.616.986-.863a1.525 1.525 0 0 0 .37-.246 1.526 1.526 0 0 0-.246.37l-.863.863c-.739.739-1.972 1.848-3.327 3.2-.739.739-1.356 1.479-2.095 2.341a11.023 11.023 0 0 0-1.972 3.081c-.246.616-.37 1.232-.616 1.848a2.447 2.447 0 0 0-.123 1.848 1.826 1.826 0 0 0 1.479.986 6.7 6.7 0 0 0 2.218 0 22.956 22.956 0 0 0 4.19-.863 24.079 24.079 0 0 0 3.574-1.725 28.372 28.372 0 0 0 5.3-4.19l.986-.986c.246-.37.616-.616.863-.986.246-.246.493-.616.739-.863s.37-.493.616-.739a4.039 4.039 0 0 0 .739-.986c.121.127.121 0 .245 0z" transform="translate(-72.691 -293.4)"/>
      </g>
      <g id="Group_359" data-name="Group 359" transform="translate(27.759 49.046)">
        <path id="Path_737" data-name="Path 737" class="cls-23" d="M93.752 297.946s-.37.246-1.109.863a15.741 15.741 0 0 0-2.341 2.834 42.039 42.039 0 0 0-2.095 5.052c-.37.986-.739 1.972-1.232 3.081a11.8 11.8 0 0 1-2.095 2.958 8.508 8.508 0 0 1-3.327 1.972 9.077 9.077 0 0 1-1.725.493 2.462 2.462 0 0 1-1.848-.247 1.776 1.776 0 0 1-1.109-1.356 3.64 3.64 0 0 1-.246-1.6 12.962 12.962 0 0 1 .739-2.588l.246.123a1.124 1.124 0 0 1-.986.37 1.248 1.248 0 0 1-.863-.493 1.438 1.438 0 0 1-.246-1.356 2.007 2.007 0 0 1 .37-.739l.246-.246a5.876 5.876 0 0 0-.493.986 1.518 1.518 0 0 0 .246 1.232 2.006 2.006 0 0 0 .739.37c.246 0 .616 0 .739-.246l.616-.739-.37.863a14.4 14.4 0 0 0-.739 2.465 2.437 2.437 0 0 0 .246 1.356 2.174 2.174 0 0 0 .986 1.109 2.342 2.342 0 0 0 1.6.123 12.644 12.644 0 0 0 1.725-.493 8.1 8.1 0 0 0 3.2-1.972 10.693 10.693 0 0 0 1.972-2.834c.493-.986.863-1.972 1.356-2.958a34.334 34.334 0 0 1 2.218-5.176 9.821 9.821 0 0 1 2.465-2.834c.123-.123.37-.246.493-.37s.246-.123.37-.246c.129.243.252.243.252.243z" transform="translate(-75.44 -297.7)"/>
      </g>
      <path id="Path_738" data-name="Path 738" class="cls-3" d="M79.394 315.22s-2.465 7.394 3.574 3.327c6.162-4.19 7.024-19.347 7.024-19.347s-4.192 15.157-10.598 16.02z" transform="translate(-46.878 -248.306)"/>
      <g id="Group_360" data-name="Group 360" transform="translate(49.029 137.913)">
        <path id="Path_739" data-name="Path 739" class="cls-24" d="M99.847 370.043c0 .123-1.6.123-3.574.37a32.343 32.343 0 0 1-3.574.493 8.6 8.6 0 0 1 3.45-.986 8.651 8.651 0 0 1 3.698.123z" transform="translate(-92.7 -369.814)"/>
      </g>
      <g id="Group_361" data-name="Group 361" transform="translate(49.275 135.543)">
        <path id="Path_740" data-name="Path 740" class="cls-24" d="M100.787 367.9a5.572 5.572 0 0 1-.986.739 7.708 7.708 0 0 1-2.834.863 11.121 11.121 0 0 1-2.958-.123c-.739-.246-1.109-.37-1.109-.493a14.76 14.76 0 0 0 4.067.123 16.544 16.544 0 0 0 3.82-1.109z" transform="translate(-92.9 -367.891)"/>
      </g>
      <g id="Group_362" data-name="Group 362" transform="translate(24.477 127.544)">
        <path id="Path_741" data-name="Path 741" class="cls-24" d="M76.5 366.206a4.933 4.933 0 0 1-2.465-1.972 4.6 4.6 0 0 1-1.232-2.834c.123 0 .616 1.232 1.6 2.588.99 1.232 2.097 2.095 2.097 2.218z" transform="translate(-72.777 -361.4)"/>
      </g>
      <g id="Group_363" data-name="Group 363" transform="translate(23.274 130.355)">
        <path id="Path_742" data-name="Path 742" class="cls-24" d="M75.99 366.415c-.123 0-.123-.246-.493-.493a7.822 7.822 0 0 0-1.479-.863A16.281 16.281 0 0 1 71.8 363.7a5.6 5.6 0 0 1 2.341.986 7.682 7.682 0 0 1 1.479 1.114c.493.246.493.615.37.615z" transform="translate(-71.8 -363.681)"/>
      </g>
      <g id="Group_364" data-name="Group 364" transform="translate(36.09 104.993)">
        <path id="Path_743" data-name="Path 743" class="cls-24" d="M94.646 348.645a4.8 4.8 0 0 1-1.972-.246c-1.232-.37-2.711-1.232-4.436-1.972-1.725-.863-3.2-1.6-4.313-2.218s-1.725-.986-1.725-1.109c0 0 .739.246 1.848.739s2.711 1.232 4.313 2.095a43.393 43.393 0 0 0 4.313 2.095c1.233.493 1.972.493 1.972.616z" transform="translate(-82.2 -343.1)"/>
      </g>
    </g>
    <g id="Group_366" data-name="Group 366" class="cls-14" transform="translate(245.341 178.563)">
      <path id="Path_744" data-name="Path 744" class="cls-4" d="M200.95 146.5c-1.725 1.356-2.218 4.067-1.6 6.162a16.939 16.939 0 0 0 3.327 5.792c3.45 4.436 7.147 8.873 11.091 13.062a52.229 52.229 0 0 1 5.3 6.408c6.038 9.366 4.067 21.689 5.176 32.779.246 2.465 1.479 5.669 3.943 5.545a4.408 4.408 0 0 0 2.588-1.109 20.2 20.2 0 0 0 8.5-16.02 19.775 19.775 0 0 1 .37-5.422c.863-2.465 2.958-4.067 4.683-5.915 3.574-3.943 5.176-9.119 6.778-14.172 1.725-5.792 3.45-12.2.739-17.622-1.972-3.82-5.915-6.162-9.858-7.764-12.939-5.176-27.357-3.2-41.159-1.232" transform="translate(-199.094 -144.919)"/>
    </g>
    <g id="Group_377" data-name="Group 377" transform="translate(233.33 121.48)">
      <g id="Group_367" data-name="Group 367" transform="translate(45.291 125.205)">
        <path id="Path_745" data-name="Path 745" class="cls-16" d="M228.911 200.2l.123 3.7-2.711.37-.123-4.07z" transform="translate(-226.077 -200.2)"/>
        <path id="Path_746" data-name="Path 746" class="cls-15" d="M226.346 203.706s11.091-1.972 12.693-.616-12.939 2.588-12.939 2.588z" transform="translate(-226.1 -199.639)"/>
      </g>
      <g id="Group_368" data-name="Group 368" transform="translate(50.59 103.64)">
        <path id="Path_747" data-name="Path 747" class="cls-16" d="M235.713 184.056l-1.848 3.2-2.465-1.106 2.095-3.45z" transform="translate(-230.168 -182.7)"/>
        <path id="Path_748" data-name="Path 748" class="cls-15" d="M231.632 185.5s10.351 4.313 10.968 6.408-12.2-4.929-12.2-4.929z" transform="translate(-230.4 -182.05)"/>
      </g>
      <path id="Path_749" data-name="Path 749" class="cls-13" d="M240.676 114.251c4.313-2.711-1.232-5.052 3.943-4.683 1.109 0 2.465.123 3.327-.493a3.786 3.786 0 0 0 1.109-4.067 8.286 8.286 0 0 0-7.764-6.408c-4.929-.123-9.119 4.067-14.048 3.82a29.1 29.1 0 0 1-5.422-1.356c-5.176-1.6-11.953-.739-14.541 4.067-.739 1.232-.986 2.711-1.848 3.943-2.218 3.574-6.9 4.19-10.351 6.408a12.862 12.862 0 0 0-5.669 11.83c.246 1.848.863 3.943 2.465 5.052 0 0 5.3 6.778 17.252 0s31.547-18.113 31.547-18.113z" transform="translate(-189.347 -98.598)"/>
      <path id="Path_750" data-name="Path 750" class="cls-6" d="M222.9 123.017c1.848-2.095 30.315 29.082 36.476 32.41 6.038 3.327 4.683 0 4.683 0l-12.2-13.555-23.414-26.372z" transform="translate(-181.552 -94.671)"/>
      <path id="Path_751" data-name="Path 751" class="cls-12" d="M231.686 112.38a14.938 14.938 0 0 0-15.774 1.725l-.123.123c-7.887 6.285-17.745 18.608-14.788 39.68l27.727-3.327s-3.943-4.683 1.109-18.608c2.711-7.64 5.176-14.788 5.176-14.788z" transform="translate(-186.765 -95.741)"/>
      <path id="Path_752" data-name="Path 752" class="cls-6" d="M213.82 121.879s2.341 24.893 11.707 28.22 26.248 3.327 26.248 3.327 1.356-1.725-16.636-6.038c-.739-.123-1.479-.37-2.341-.493 0 0-10.228-5.915-9.612-23.907a16.516 16.516 0 0 0-.123-2.465c-.37-2.588-1.725-8.01-5.422-7.517-4.93.616-3.821 8.873-3.821 8.873z" transform="translate(-183.687 -95.258)"/>
      <path id="Path_753" data-name="Path 753" class="cls-17" d="M200.9 146.384s21.072 25.386 25.386 32.9c4.19 7.517 2.341 34.258 3.7 35s6.778 0 6.778 0l.37-20.21.246-10.6a38.836 38.836 0 0 0-2.588-14.911l-5.669-15.034s23.291 1.479 19.224 13.186c-5.176 14.664-9.858 25.878-9.858 25.878l4.683 1.848s22.058-27.727 16.883-39.927-31.428-11.214-31.428-11.214z" transform="translate(-186.663 -88.217)"/>
      <g id="Group_369" data-name="Group 369" transform="translate(41.894 4.406)">
        <path id="Path_754" data-name="Path 754" class="cls-16" d="M241.282 107.483l-3.7 7.887a3.5 3.5 0 0 1-4.683 1.6l-.986-.493-1.725 1.972a3.315 3.315 0 0 1-4.683.246l-.863-.739a3.882 3.882 0 0 1-.37-5.422l8.628-9.734z" transform="translate(-223.344 -102.028)"/>
        <path id="Path_755" data-name="Path 755" class="cls-13" d="M226.9 114.406s3.45.863 5.052-.986c0 0-1.848-4.683 0-4.806 1.848 0 1.972 3.574 1.972 3.574s1.356-3.82 2.341-4.19c0 0 4.56 4.067 6.162.739 0 0-.246-2.218-2.958-4.929s-8.133-1.232-8.133-1.232z" transform="translate(-222.518 -102.173)"/>
      </g>
      <g id="Group_370" data-name="Group 370" transform="translate(41.717 15.53)">
        <path id="Path_756" data-name="Path 756" class="cls-6" d="M229.608 116.992s0 .123-.246.37a2.322 2.322 0 0 1-1.109.493 9.174 9.174 0 0 1-1.848 0 1.988 1.988 0 0 1-1.109-.37 2.879 2.879 0 0 1-.863-.863 6.574 6.574 0 0 1-1.232-3.82c0-.986.246-1.6.37-1.6s0 .616 0 1.6a6.552 6.552 0 0 0 1.232 3.574l.739.739a2.285 2.285 0 0 0 .863.246 8.052 8.052 0 0 0 1.725 0 2.461 2.461 0 0 0 1.109-.246.54.54 0 0 0 .369-.123z" transform="translate(-223.2 -111.2)"/>
      </g>
      <g id="Group_371" data-name="Group 371" transform="translate(22.616 24.033)">
        <path id="Path_757" data-name="Path 757" class="cls-6" d="M218.791 118.1a12.8 12.8 0 0 1-.739 1.232c-.493.863-1.109 1.972-1.972 3.327A80.387 80.387 0 0 0 210.411 134a37.185 37.185 0 0 0-1.848 6.778 33.049 33.049 0 0 0-.493 5.669 28.09 28.09 0 0 0 .246 3.82c.123.863.246 1.356.246 1.356a.954.954 0 0 0-.123-.37 3.81 3.81 0 0 0-.246-.986 22.4 22.4 0 0 1-.493-3.82 33.884 33.884 0 0 1 .37-5.792 40.072 40.072 0 0 1 1.848-6.778 67.29 67.29 0 0 1 5.915-11.337c.863-1.356 1.6-2.465 2.095-3.2.493-.87.74-1.24.863-1.24z" transform="translate(-207.7 -118.1)"/>
      </g>
      <path id="Path_758" data-name="Path 758" class="cls-13" d="M222.4 112.451a11.7 11.7 0 0 0 5.545 1.972c2.958.123 4.806-12.323 4.806-12.323z" transform="translate(-181.669 -97.784)"/>
      <g id="Group_372" data-name="Group 372" transform="translate(25.328 59.153)">
        <path id="Path_759" data-name="Path 759" class="cls-25" d="M213.474 146.6a2.462 2.462 0 0 1 .123 1.356 7.956 7.956 0 0 1-.739 3.081 7.366 7.366 0 0 1-1.848 2.588 6.989 6.989 0 0 1-1.109.739s.37-.37.863-.986a11.825 11.825 0 0 0 1.6-2.588 11.046 11.046 0 0 0 .863-2.958c.123-.739.123-1.232.247-1.232z" transform="translate(-209.9 -146.6)"/>
      </g>
      <g id="Group_373" data-name="Group 373" transform="translate(29.271 69.012)">
        <path id="Path_760" data-name="Path 760" class="cls-25" d="M213.1 154.6a3.646 3.646 0 0 1 .37.493c.246.37.616.739 1.109 1.356q1.479 1.848 4.067 5.176a60.3 60.3 0 0 1 5.176 8.256 34.156 34.156 0 0 1 2.218 5.3 47.993 47.993 0 0 1 1.479 6.038 158.552 158.552 0 0 1 1.848 21.689c0 2.834 0 5.052-.123 6.654 0 .739-.123 1.356-.123 1.848 0 .37 0 .616-.123.616v-2.465c0-1.6 0-3.82-.123-6.531a159.818 159.818 0 0 0-1.972-21.565 47.777 47.777 0 0 0-1.356-6.038 34.156 34.156 0 0 0-2.218-5.3 53.771 53.771 0 0 0-5.052-8.256c-1.6-2.218-2.958-4.067-3.943-5.3q-.739-.924-1.109-1.479c-.002-.246-.125-.369-.125-.492z" transform="translate(-213.1 -154.6)"/>
      </g>
      <g id="Group_374" data-name="Group 374" transform="translate(41.513 62.234)">
        <path id="Path_761" data-name="Path 761" class="cls-25" d="M223.115 149.1c.123 0 .246.739.616 1.479.246.863.616 1.479.493 1.479-.123.123-.616-.493-.986-1.356-.246-.863-.246-1.602-.123-1.602z" transform="translate(-223.034 -149.1)"/>
      </g>
      <g id="Group_375" data-name="Group 375" transform="translate(36.899 56.177)">
        <path id="Path_762" data-name="Path 762" class="cls-25" d="M222.876 147.284c-.123.123-.863-.616-1.848-1.479s-1.848-1.479-1.725-1.6.986.37 2.095 1.232c.985.863 1.602 1.724 1.478 1.847z" transform="translate(-219.29 -144.185)"/>
      </g>
      <g id="Group_376" data-name="Group 376" transform="translate(45.414 62.338)">
        <path id="Path_763" data-name="Path 763" class="cls-25" d="M226.2 151.052a1.349 1.349 0 0 1 .493-.246 14.563 14.563 0 0 0 1.6-.739 18.125 18.125 0 0 1 6.531-.863 20.106 20.106 0 0 1 4.436.863 10.965 10.965 0 0 1 4.56 2.711 8.509 8.509 0 0 1 1.6 2.465 11.466 11.466 0 0 1 .616 2.958 24.749 24.749 0 0 1 .123 3.081 28.94 28.94 0 0 1-.123 3.2 24.068 24.068 0 0 1-1.479 6.038c-.739 1.848-1.6 3.574-2.341 5.3q-2.4 4.991-4.067 8.873c-1.232 2.465-2.095 4.56-2.834 5.915-.37.739-.739 1.232-.863 1.479a3.642 3.642 0 0 1-.37.493l.246-.493a16.125 16.125 0 0 0 .863-1.6c.739-1.356 1.6-3.45 2.711-6.038s2.465-5.545 4.067-8.873c.739-1.725 1.6-3.45 2.341-5.3a23.128 23.128 0 0 0 1.479-5.915 25.758 25.758 0 0 0 .123-3.081 22.777 22.777 0 0 0-.123-2.958 10.549 10.549 0 0 0-.616-2.834 9.374 9.374 0 0 0-1.479-2.341 11.22 11.22 0 0 0-4.313-2.588 18.826 18.826 0 0 0-4.436-.863 18.225 18.225 0 0 0-6.408.739c-1.598.247-2.337.74-2.337.617z" transform="translate(-226.2 -149.184)"/>
      </g>
    </g>
    <g id="Group_378" data-name="Group 378" class="cls-14" transform="translate(272.583 298.042)">
      <path id="Path_764" data-name="Path 764" class="cls-4" d="M221.2 243.508a1.908 1.908 0 0 1 .986-1.356 3.158 3.158 0 0 1 2.588 0c1.232.739 1.848 2.341 2.218 3.7a12.134 12.134 0 0 0 1.479 4.19 1.966 1.966 0 0 0 1.109.863c.863.123 1.479-.493 2.095-1.109 1.6-1.725 3.45-3.45 5.669-4.067s5.052 0 6.285 2.095a9.551 9.551 0 0 1 .863 3.7c.739 10.228 1.356 20.456 2.095 30.684.37 4.806.616 9.612-.739 14.172-1.232 4.067-13.062 16.02-18.731 16.02" transform="translate(-221.2 -241.875)"/>
    </g>
    <g id="Group_390" data-name="Group 390" transform="translate(230.543 300.726)">
      <g id="Group_379" data-name="Group 379" transform="translate(4.577 5.357)">
        <path id="Path_765" data-name="Path 765" class="cls-16" d="M229 326.8l-2.711 55.084-7.889 36.723-3.574-.986 3.081-36.846-6.162-37.832-5.545 35.367-12.2 40.42-3.2.123 5.792-40.3-1.6-49.046z" transform="translate(-190.8 -230.187)"/>
        <path id="Path_766" data-name="Path 766" class="cls-15" d="M239.872 252.063l-3.574 28.22-17.5 17.006-15.774.247-5.669 9.982 2.341 9a30.136 30.136 0 0 1-1.6 19.717l-3.7 11.091 34.381 3.943c1.109-26.125.616-28.22-3.7-43.131l20.333-26.248V251.2z" transform="translate(-189.964 -247.75)"/>
        <path id="Path_767" data-name="Path 767" class="cls-15" d="M223.728 251.727c-1.725.986-12.693 29.082-12.693 29.082l.616 17.992-10.351 1.849v-20.58l17.992-31.67z" transform="translate(-188.361 -248.4)"/>
      </g>
      <g id="Group_380" data-name="Group 380" transform="translate(0 35.538)">
        <path id="Path_768" data-name="Path 768" class="cls-16" d="M213.919 274.5l3.2 8.133a3.55 3.55 0 0 1-1.972 4.56l-1.109.37.493 5.915-8.256.739-1.475-16.759z" transform="translate(-182.971 -272.518)"/>
        <path id="Path_769" data-name="Path 769" class="cls-17" d="M209.313 290.277s3.2-2.711 2.958-5.176c0 0-4.683-1.972-3.45-3.327s3.943.986 3.943.986-1.848-3.574-1.479-4.56c0 0 6.038-.493 4.806-4.067 0 0-1.848-1.356-5.669-1.232S205 279.679 205 279.679z" transform="translate(-182.924 -272.891)"/>
        <path id="Path_770" data-name="Path 770" class="cls-17" d="M215.2 273.272a11.905 11.905 0 0 0-10.475 2.341 11.549 11.549 0 0 0-4.067 9.858c.246 2.588 1.232 5.3.246 7.64a8.54 8.54 0 0 1-2.465 3.081c-2.834 2.588-5.915 5.176-8.133 8.38s-3.7 7.147-3.081 10.968a9.411 9.411 0 0 0 1.972 4.56 13.192 13.192 0 0 1 1.725 1.972c1.725 2.588.739 6.162 1.848 9.119 1.356 3.7 5.792 5.422 9.735 5.792 5.422.493 11.337-.616 15.4-4.313s5.545-10.351 2.465-14.911c-1.479-2.218-4.19-4.19-3.943-6.9.123-1.725 1.479-2.958 2.095-4.56a7.628 7.628 0 0 0-2.218-9.119 27.054 27.054 0 0 1-3.081-2.095 3.185 3.185 0 0 1-.986-3.327c.37-.863 1.356-1.356 1.848-2.218.616-1.232-.123-2.834-1.109-3.943s-2.095-2.218-2.218-3.574a4.838 4.838 0 0 1 .986-3.081c.986-1.848 1.972-3.82 2.958-5.669" transform="translate(-187.086 -272.892)"/>
      </g>
      <path id="Path_771" data-name="Path 771" class="cls-6" d="M194.665 329l-2.465 19.224 18.485 2.958.863-7.64.986 7.517h18.485l-1.972-18.115z" transform="translate(-185.898 -224.319)"/>
      <path id="Path_772" data-name="Path 772" class="cls-15" d="M191.216 400.1s11.214 0 12.57 1.6c1.356 1.725-13.186.246-13.186.246z" transform="translate(-186.27 -207.802)"/>
      <path id="Path_773" data-name="Path 773" class="cls-15" d="M209.646 401.006s11.091-1.972 12.693-.616-12.939 2.588-12.939 2.588z" transform="translate(-181.902 -207.845)"/>
      <g id="Group_381" data-name="Group 381" transform="translate(20.474 116.601)">
        <path id="Path_774" data-name="Path 774" class="cls-24" d="M216.023 343.512c-.123.123-2.711-1.109-6.162-2.465-3.327-1.356-6.162-2.218-6.162-2.341s.739.123 1.848.37c1.109.37 2.711.863 4.436 1.479a29.079 29.079 0 0 1 4.313 1.972c1.111.615 1.727.985 1.727.985z" transform="translate(-203.7 -338.673)"/>
      </g>
      <g id="Group_382" data-name="Group 382" transform="translate(6.179 121.882)">
        <path id="Path_775" data-name="Path 775" class="cls-24" d="M211.078 345.967a10.2 10.2 0 0 1-2.711-.493c-1.725-.37-4.067-.739-6.654-1.109s-5.052-.616-6.778-.863a12.7 12.7 0 0 1-2.834-.493 12.419 12.419 0 0 1 2.834.123c1.725.123 4.19.37 6.778.739s5.052.863 6.654 1.232a7.519 7.519 0 0 1 2.711.864z" transform="translate(-192.1 -342.959)"/>
      </g>
      <g id="Group_383" data-name="Group 383" transform="translate(26.142 123.905)">
        <path id="Path_776" data-name="Path 776" class="cls-24" d="M226.785 344.723a12.319 12.319 0 0 1-2.711.246c-1.725.123-4.067.246-6.531.37-2.588.123-4.929.37-6.531.493s-2.711.123-2.711.123a10.6 10.6 0 0 1 2.711-.493 74.293 74.293 0 0 1 6.531-.616c2.588-.123 4.929-.246 6.654-.246a9.521 9.521 0 0 1 2.588.123z" transform="translate(-208.3 -344.6)"/>
      </g>
      <g id="Group_384" data-name="Group 384" transform="translate(37.187 110.226)">
        <path id="Path_777" data-name="Path 777" class="cls-24" d="M223.963 336.458a5.06 5.06 0 0 1-1.109.493 5.28 5.28 0 0 1-2.958-.37 5.074 5.074 0 0 1-2.218-1.972c-.37-.616-.493-1.109-.37-1.109s.246.37.616.986a5.076 5.076 0 0 0 2.095 1.725 5.778 5.778 0 0 0 2.711.493c.74-.246 1.11-.37 1.233-.246z" transform="translate(-217.262 -333.5)"/>
      </g>
      <g id="Group_385" data-name="Group 385" transform="translate(41.268 113.8)">
        <path id="Path_778" data-name="Path 778" class="cls-24" d="M222.085 349.709a42.12 42.12 0 0 1-.986-6.654 56.094 56.094 0 0 1-.493-6.654 42.12 42.12 0 0 1 .986 6.654 56.093 56.093 0 0 1 .493 6.654z" transform="translate(-220.574 -336.4)"/>
      </g>
      <g id="Group_386" data-name="Group 386" transform="translate(10.615 154.804)">
        <path id="Path_779" data-name="Path 779" class="cls-26" d="M195.7 369.706a6.6 6.6 0 0 1 2.218.493 9.858 9.858 0 0 1 2.218.739 4.362 4.362 0 0 1-2.341-.246 5.075 5.075 0 0 1-2.095-.986z" transform="translate(-195.7 -369.674)"/>
      </g>
      <g id="Group_387" data-name="Group 387" transform="translate(10.492 154.415)">
        <path id="Path_780" data-name="Path 780" class="cls-26" d="M200.529 369.533a4.051 4.051 0 0 1-2.465.37 4.718 4.718 0 0 1-2.465-.493 9.459 9.459 0 0 1 2.465.123 14.151 14.151 0 0 1 2.465 0z" transform="translate(-195.6 -369.359)"/>
      </g>
      <g id="Group_388" data-name="Group 388" transform="translate(32.674 155.154)">
        <path id="Path_781" data-name="Path 781" class="cls-26" d="M218.16 370.01a4.638 4.638 0 0 1-2.218.616 4.267 4.267 0 0 1-2.341 0 5.492 5.492 0 0 1 2.218-.493 8.548 8.548 0 0 1 2.341-.123z" transform="translate(-213.6 -369.959)"/>
      </g>
      <g id="Group_389" data-name="Group 389" transform="translate(33.043 154.175)">
        <path id="Path_782" data-name="Path 782" class="cls-26" d="M216.858 369.208a4.031 4.031 0 0 1-1.356.863c-.863.37-1.479.616-1.6.493 0-.123.493-.493 1.356-.863.86-.493 1.476-.616 1.6-.493z" transform="translate(-213.9 -369.164)"/>
      </g>
      <path id="Path_783" data-name="Path 783" class="cls-16" d="M219.374 252.737s4.806-2.588 4.806-2.958c-.246-.986-2.834.246-2.834.246s3.943-4.067 3.327-4.683c-.37-.37-2.834 1.725-2.834 1.725s1.479-2.465.986-2.958-2.711 2.341-2.711 2.341.863-1.848.37-2.341c-.37-.37-4.683 7.147-4.683 7.147z" transform="translate(-180.415 -244.053)"/>
      <path id="Path_784" data-name="Path 784" class="cls-16" d="M232.233 253.619s-2.095-5.052-1.725-5.3c.739-.616 1.972 1.972 1.972 1.972s-.37-5.669.493-5.792c.493 0 .986 3.081.986 3.081s.37-2.834 1.109-2.958.616 3.574.616 3.574.493-1.972 1.232-1.972c.493 0-.986 8.5-.986 8.5z" transform="translate(-177.009 -243.95)"/>
    </g>
    <g id="Group_424" data-name="Group 424" transform="translate(133.332 396.401)">
      <g id="Group_415" data-name="Group 415" transform="translate(43.747 1.859)">
        <path id="Path_785" data-name="Path 785" d="M143.7 354.008l12.693-30.808s35.121 11.83 34.751 12.57-15.281 31.3-15.281 31.3z" transform="translate(-143.7 -323.2)" fill="#f4f3ff"/>
        <g id="Group_391" data-name="Group 391" transform="translate(8.133 5.052)">
          <path id="Path_786" data-name="Path 786" class="cls-24" d="M161.021 327.3a.382.382 0 0 1-.123.246 2.694 2.694 0 0 0-.37.616 23.916 23.916 0 0 0-1.232 2.095c-1.109 1.848-2.465 4.313-4.067 7.147-1.479 2.834-2.711 5.422-3.574 7.394a21.9 21.9 0 0 1-.986 2.218 2.082 2.082 0 0 0-.246.616.382.382 0 0 0-.123.246.382.382 0 0 1 .123-.246c.123-.123.123-.37.246-.616.246-.493.493-1.356.986-2.341.863-1.972 2.095-4.56 3.574-7.394s2.958-5.3 4.067-7.147c.616-.863.986-1.6 1.356-2.095.123-.246.246-.37.37-.616-.122-.123-.001-.123-.001-.123z" transform="translate(-150.3 -327.3)"/>
        </g>
        <g id="Group_392" data-name="Group 392" transform="translate(15.527 4.313)">
          <path id="Path_787" data-name="Path 787" class="cls-24" d="M176.51 336.189a.382.382 0 0 1-.246-.123c-.123-.123-.37-.123-.616-.246-.493-.246-1.232-.493-2.218-.986-1.848-.739-4.313-1.972-7.147-3.2-2.711-1.356-5.176-2.465-7.024-3.45a39.82 39.82 0 0 0-2.095-1.109c-.246-.123-.37-.246-.616-.246a.382.382 0 0 0-.246-.123.382.382 0 0 1 .246.123c.123.123.37.123.616.246.493.246 1.232.616 2.095.986 1.848.863 4.313 2.095 7.024 3.327s5.176 2.465 7.024 3.327c.863.37 1.6.739 2.095.986.246.123.37.246.616.246a1.349 1.349 0 0 1 .492.242z" transform="translate(-156.3 -326.7)"/>
        </g>
        <g id="Group_393" data-name="Group 393" transform="translate(24.03 10.598)">
          <path id="Path_788" data-name="Path 788" class="cls-24" d="M177 331.8a.382.382 0 0 1-.123.246 6.008 6.008 0 0 0-.37.863c-.37.739-.863 1.725-1.6 2.958-1.356 2.465-3.2 5.915-5.176 9.735s-3.574 7.394-4.683 9.982c-.616 1.232-.986 2.341-1.356 3.081a6.008 6.008 0 0 1-.37.863l-.123.246a.382.382 0 0 1 .123-.246 4.475 4.475 0 0 1 .37-.863c.246-.739.739-1.848 1.232-3.081 1.109-2.588 2.711-6.162 4.683-9.982s3.82-7.271 5.176-9.735a40.132 40.132 0 0 0 1.6-2.958 7.3 7.3 0 0 1 .493-.739.954.954 0 0 0 .124-.37z" transform="translate(-163.2 -331.8)"/>
        </g>
        <g id="Group_394" data-name="Group 394" transform="translate(17.373 7.271)">
          <path id="Path_789" data-name="Path 789" class="cls-24" d="M177.394 337.973s-4.436-1.848-9.858-4.313-9.858-4.436-9.735-4.56c0 0 4.436 1.848 9.858 4.313s9.735 4.56 9.735 4.56z" transform="translate(-157.798 -329.1)"/>
        </g>
        <g id="Group_395" data-name="Group 395" transform="translate(17.242 10.598)">
          <path id="Path_790" data-name="Path 790" class="cls-24" d="M161.645 333.648s-.863-.493-1.972-.986-2.095-.739-1.972-.863a8.284 8.284 0 0 1 2.095.616 13.147 13.147 0 0 1 1.849 1.233z" transform="translate(-157.691 -331.8)"/>
        </g>
        <g id="Group_396" data-name="Group 396" transform="translate(16.39 11.337)">
          <path id="Path_791" data-name="Path 791" class="cls-24" d="M161.067 334.125s-.863-.493-1.972-.986-2.095-.616-2.095-.739a6.6 6.6 0 0 1 2.218.493 6.768 6.768 0 0 1 1.849 1.232z" transform="translate(-157 -332.4)"/>
        </g>
        <g id="Group_397" data-name="Group 397" transform="translate(16.256 12.2)">
          <path id="Path_792" data-name="Path 792" class="cls-24" d="M160.845 335.072s-.863-.493-1.972-.986-2.095-.863-1.972-.986a14.347 14.347 0 0 1 2.095.739 13.147 13.147 0 0 1 1.849 1.233z" transform="translate(-156.892 -333.1)"/>
        </g>
        <g id="Group_398" data-name="Group 398" transform="translate(23.463 12.392)">
          <path id="Path_793" data-name="Path 793" class="cls-24" d="M163.553 333.434a.43.43 0 0 1 .246-.123c.123 0 .493-.123.739 0a.923.923 0 0 1 .739.863.905.905 0 0 1-.246.739 1.23 1.23 0 0 1-.616.493 1.563 1.563 0 0 1-.739.123 1.048 1.048 0 0 1-.616-.37 1.014 1.014 0 0 1-.246-1.109c.37-.493.616-.616.739-.616.246-.123.37-.123.246-.123.123.123 0 .123-.246.123-.123 0-.246.246-.37.493a.817.817 0 0 0 .246.863 1.182 1.182 0 0 0 1.109.246 1.057 1.057 0 0 0 .739-.863c0-.37-.37-.616-.616-.739a.786.786 0 0 0-.739 0z" transform="translate(-162.74 -333.256)"/>
        </g>
        <g id="Group_399" data-name="Group 399" transform="translate(26.495 14.172)">
          <path id="Path_794" data-name="Path 794" class="cls-24" d="M169.76 336.548a17.017 17.017 0 0 1-2.341-.739 15.653 15.653 0 0 1-2.219-1.109s.986.37 2.218.986a14.063 14.063 0 0 1 2.342.862z" transform="translate(-165.2 -334.7)"/>
        </g>
        <g id="Group_400" data-name="Group 400" transform="translate(26.002 14.788)">
          <path id="Path_795" data-name="Path 795" class="cls-24" d="M166.895 336.186c0 .123-.493 0-1.109-.246s-.986-.616-.986-.739l.986.493c.614.245 1.109.369 1.109.492z" transform="translate(-164.8 -335.2)"/>
        </g>
        <g id="Group_401" data-name="Group 401" transform="translate(20.456 15.157)">
          <path id="Path_796" data-name="Path 796" class="cls-24" d="M160.3 340.8h.123c.123 0 .246.123.493.123.37.123.986.37 1.725.616 1.479.616 3.574 1.356 5.915 2.341h-.123c.986-1.6 1.972-3.45 3.081-5.3l.123-.123.123.123c-3.081-1.109-5.915-2.218-8.256-2.958h.123c-1.848 2.958-2.958 4.56-3.327 5.176 0 0 .246-.493.863-1.479.493-.863 1.356-2.218 2.341-3.7v-.119h.123c2.341.863 5.176 1.848 8.256 2.958h.123l-.123.123-.123.123c-1.109 1.848-2.218 3.7-3.081 5.3v.123h-.123c-2.465-.986-4.436-1.848-6.038-2.465a12.016 12.016 0 0 1-1.725-.739c-.123-.123-.37-.123-.493-.246z" transform="translate(-160.3 -335.5)"/>
        </g>
        <g id="Group_402" data-name="Group 402" transform="translate(17.672 22.004)">
          <path id="Path_797" data-name="Path 797" class="cls-24" d="M158.853 341.234a.43.43 0 0 1 .246-.123c.123 0 .493-.123.739 0a.923.923 0 0 1 .739.863.905.905 0 0 1-.246.739 1.23 1.23 0 0 1-.616.493 1.563 1.563 0 0 1-.739.123 1.048 1.048 0 0 1-.616-.37 1.014 1.014 0 0 1-.246-1.109c.37-.493.616-.739.739-.616.246-.123.37-.123.246-.123.123 0 0 0-.246.123-.123 0-.246.246-.37.493a.817.817 0 0 0 .246.863 1.182 1.182 0 0 0 1.109.246 1.057 1.057 0 0 0 .739-.863c0-.37-.37-.616-.616-.739a.786.786 0 0 0-.739 0z" transform="translate(-158.04 -341.056)"/>
        </g>
        <g id="Group_403" data-name="Group 403" transform="translate(20.703 23.784)">
          <path id="Path_798" data-name="Path 798" class="cls-24" d="M165.06 344.348a17.015 17.015 0 0 1-2.341-.739 15.652 15.652 0 0 1-2.219-1.109s.986.37 2.341.986a7.434 7.434 0 0 1 2.219.862z" transform="translate(-160.5 -342.5)"/>
        </g>
        <g id="Group_404" data-name="Group 404" transform="translate(20.21 24.276)">
          <path id="Path_799" data-name="Path 799" class="cls-24" d="M162.195 343.886c0 .123-.493 0-1.109-.246s-.986-.616-.986-.739l.986.493a5.059 5.059 0 0 1 1.109.492z" transform="translate(-160.1 -342.9)"/>
        </g>
        <g id="Group_405" data-name="Group 405" transform="translate(14.664 24.646)">
          <path id="Path_800" data-name="Path 800" class="cls-24" d="M155.6 348.5h.123c.123 0 .246.123.493.123.37.123.986.37 1.725.616 1.479.616 3.574 1.356 5.915 2.341h-.123c.986-1.6 1.972-3.45 3.081-5.3l.123-.123.123.123c-3.081-1.109-5.915-2.218-8.256-2.958h.123a57.936 57.936 0 0 1-3.327 5.178s.246-.493.863-1.479c.493-.863 1.356-2.218 2.341-3.7v-.121h.123c2.341.863 5.176 1.848 8.256 2.958h.123l-.123.123-.123.123c-1.109 1.848-2.218 3.7-3.081 5.3v.123h-.123c-2.465-.986-4.436-1.848-6.038-2.465a12.015 12.015 0 0 1-1.725-.739c-.123-.123-.37-.123-.493-.246.123.245 0 .123 0 .123z" transform="translate(-155.6 -343.2)"/>
        </g>
        <g id="Group_406" data-name="Group 406" transform="translate(27.973 12.816)">
          <path id="Path_801" data-name="Path 801" class="cls-24" d="M178.723 333.6s-2.711 5.545-6.038 12.2c-3.45 6.778-6.285 12.2-6.285 12.2s2.711-5.545 6.038-12.2c3.451-6.778 6.285-12.2 6.285-12.2z" transform="translate(-166.4 -333.6)"/>
        </g>
        <g id="Group_407" data-name="Group 407" transform="translate(35.607 15.755)">
          <path id="Path_802" data-name="Path 802" class="cls-24" d="M178.886 338.222a15.567 15.567 0 0 1-3.2-.986c-1.725-.616-3.2-1.109-3.081-1.232a15.57 15.57 0 0 1 3.2.986 44.176 44.176 0 0 1 3.081 1.232z" transform="translate(-172.594 -335.985)"/>
        </g>
        <g id="Group_408" data-name="Group 408" transform="translate(37.677 14.788)">
          <path id="Path_803" data-name="Path 803" class="cls-24" d="M175.785 340.129a9.7 9.7 0 0 1-.986-2.341 7.928 7.928 0 0 1-.493-2.588 12.131 12.131 0 0 1 .739 2.465c.37 1.355.74 2.341.74 2.464z" transform="translate(-174.274 -335.2)"/>
        </g>
        <g id="Group_409" data-name="Group 409" transform="translate(37.247 21.196)">
          <path id="Path_804" data-name="Path 804" class="cls-24" d="M174.017 342.618c-.123 0-.123-.493 0-1.109 0-.616.123-1.109.246-1.109s.123.493 0 1.109c.001.616-.122 1.109-.246 1.109z" transform="translate(-173.925 -340.4)"/>
        </g>
        <g id="Group_410" data-name="Group 410" transform="translate(36.476 22.182)">
          <path id="Path_805" data-name="Path 805" class="cls-24" d="M175.765 341.323c0 .123-.616 0-1.232.123s-1.232.247-1.232.123a2.21 2.21 0 0 1 1.232-.37 5.593 5.593 0 0 1 1.232.124z" transform="translate(-173.3 -341.2)"/>
        </g>
        <g id="Group_411" data-name="Group 411" transform="translate(13.544 5.792)">
          <path id="Path_806" data-name="Path 806" class="cls-24" d="M154.7 327.9s.863.37 1.972.986a8.322 8.322 0 0 1 1.972.986 14.352 14.352 0 0 1-2.095-.739 7.626 7.626 0 0 1-1.849-1.233z" transform="translate(-154.69 -327.9)"/>
        </g>
        <g id="Group_412" data-name="Group 412" transform="translate(13.555 1.972)">
          <path id="Path_807" data-name="Path 807" class="cls-24" d="M158.4 324.8s-.739 1.479-1.725 3.327a23.787 23.787 0 0 1-1.972 3.2s.739-1.479 1.725-3.327c1.106-1.844 1.972-3.2 1.972-3.2z" transform="translate(-154.7 -324.8)"/>
        </g>
        <g id="Group_413" data-name="Group 413" transform="translate(13.925 3.574)">
          <path id="Path_808" data-name="Path 808" class="cls-24" d="M155.246 327.825c-.123 0-.123-.37-.246-.863v-.862c.123 0 .123.37.246.863a1.676 1.676 0 0 1 0 .862z" transform="translate(-155 -326.1)"/>
        </g>
        <g id="Group_414" data-name="Group 414" transform="translate(13.062 4.262)">
          <path id="Path_809" data-name="Path 809" class="cls-24" d="M157.011 326.71c0 .123-.616.246-1.356.37s-1.356.246-1.356.123.616-.246 1.356-.37 1.356-.247 1.356-.123z" transform="translate(-154.3 -326.659)"/>
        </g>
      </g>
      <path id="Path_810" data-name="Path 810" class="cls-16" d="M172.2 348.361s1.6-5.3 1.848-5.3c.986 0 .37 2.834.37 2.834s3.2-4.683 3.943-4.19c.37.246-1.109 3.081-1.109 3.081s2.095-1.972 2.711-1.6-1.725 3.081-1.725 3.081 1.6-1.232 2.218-.863c.37.246-6.038 6.038-6.038 6.038z" transform="translate(-93.332 -317.05)"/>
      <path id="Path_811" data-name="Path 811" class="cls-16" d="M172.2 348.361s1.6-5.3 1.848-5.3c.986 0 .37 2.834.37 2.834s3.2-4.683 3.943-4.19c.37.246-1.109 3.081-1.109 3.081s2.095-1.972 2.711-1.6-1.725 3.081-1.725 3.081 1.6-1.232 2.218-.863c.37.246-6.038 6.038-6.038 6.038z" transform="translate(-93.332 -317.05)"/>
      <g id="Group_416" data-name="Group 416" transform="translate(42.391 149.613)">
        <path id="Path_812" data-name="Path 812" class="cls-16" d="M145.411 443.1l.123 3.7-2.711.493-.123-4.067z" transform="translate(-142.577 -443.1)"/>
        <path id="Path_813" data-name="Path 813" class="cls-15" d="M142.846 446.706s11.091-1.972 12.693-.616-12.939 2.588-12.939 2.588z" transform="translate(-142.6 -442.516)"/>
      </g>
      <g id="Group_417" data-name="Group 417" transform="translate(0 134.455)">
        <path id="Path_814" data-name="Path 814" class="cls-16" d="M114.406 433.018l-3.081 2.095-1.725-2.095 3.45-2.218z" transform="translate(-107.875 -430.8)"/>
        <path id="Path_815" data-name="Path 815" class="cls-15" d="M109.925 432.6s7.394 8.38 7.147 10.6c-.37 2.095-8.873-9.735-8.873-9.735z" transform="translate(-108.2 -430.382)"/>
      </g>
      <path id="Path_816" data-name="Path 816" class="cls-15" d="M157.321 368.5s9.242 8.626 9.489 40.3c.123 31.794-10.968 52.866-10.968 52.866h-7.764s12.816-39.927-1.6-66.3c0 0-4.806 30.808-30.315 54.345L110 443.178s18.854-23.66 18.978-53.113c0-5.792.986-8.873-.986-15.4z" transform="translate(-107.782 -310.818)"/>
      <g id="Group_418" data-name="Group 418" transform="translate(46.335 114.208)">
        <path id="Path_817" data-name="Path 817" class="cls-28" d="M152.947 414.653c0 .123-1.6.123-3.574.37a32.357 32.357 0 0 1-3.574.493 8.6 8.6 0 0 1 3.45-.986 6.82 6.82 0 0 1 3.698.123z" transform="translate(-145.8 -414.37)"/>
      </g>
      <g id="Group_419" data-name="Group 419" transform="translate(46.581 111.893)">
        <path id="Path_818" data-name="Path 818" class="cls-28" d="M153.887 412.5a5.572 5.572 0 0 1-.986.739 7.708 7.708 0 0 1-2.834.863 11.119 11.119 0 0 1-2.958-.123c-.739-.246-1.109-.37-1.109-.493a14.76 14.76 0 0 0 4.067.123 23.3 23.3 0 0 0 3.82-1.109z" transform="translate(-146 -412.491)"/>
      </g>
      <g id="Group_420" data-name="Group 420" transform="translate(21.66 103.894)">
        <path id="Path_819" data-name="Path 819" class="cls-28" d="M129.5 410.806a4.933 4.933 0 0 1-2.465-1.972 4.6 4.6 0 0 1-1.23-2.834c.123 0 .616 1.232 1.6 2.588 1.112 1.232 2.221 2.095 2.095 2.218z" transform="translate(-125.777 -406)"/>
      </g>
      <g id="Group_421" data-name="Group 421" transform="translate(20.58 106.582)">
        <path id="Path_820" data-name="Path 820" class="cls-28" d="M129.09 411.039c-.123 0-.123-.246-.493-.493s-.863-.616-1.479-.986a16.281 16.281 0 0 1-2.218-1.36 5.6 5.6 0 0 1 2.341.986 7.682 7.682 0 0 1 1.479 1.109 1.145 1.145 0 0 1 .37.744z" transform="translate(-124.9 -408.181)"/>
      </g>
      <g id="Group_422" data-name="Group 422" transform="translate(33.396 81.343)">
        <path id="Path_821" data-name="Path 821" class="cls-28" d="M147.746 393.245a4.8 4.8 0 0 1-1.972-.246c-1.232-.37-2.711-1.232-4.436-1.972-1.725-.863-3.2-1.6-4.313-2.218s-1.725-.986-1.725-1.109c0 0 .739.246 1.848.739s2.711 1.232 4.313 2.095a43.394 43.394 0 0 0 4.313 2.095c1.233.493 1.972.493 1.972.616z" transform="translate(-135.3 -387.7)"/>
      </g>
      <path id="Path_822" data-name="Path 822" class="cls-17" d="M120.5 344.845l5.422 42.022 34.135.493L155 355.69s16.883 16.02 24.276 9.366 8.5-13.186 8.5-13.186l-4.067-2.711s-6.038 11.584-11.584 8.01c-6.285-4.067-20.21-20.826-33.272-18.731-8.741 1.108-16.997-3.698-18.353 6.407z" transform="translate(-105.343 -317.848)"/>
      <g id="Group_423" data-name="Group 423" transform="translate(4.296)">
        <path id="Path_823" data-name="Path 823" class="cls-16" d="M138.519 323.3l3.2 8.133a3.551 3.551 0 0 1-1.972 4.56l-1.109.37.493 5.915-8.256.739-1.475-16.759z" transform="translate(-107.571 -321.318)"/>
        <path id="Path_824" data-name="Path 824" class="cls-6" d="M133.913 339.077s3.2-2.711 2.958-5.176c0 0-4.683-1.972-3.45-3.327s3.943.986 3.943.986-1.848-3.574-1.479-4.56c0 0 6.038-.493 4.806-4.067 0 0-1.848-1.356-5.669-1.232s-5.422 6.778-5.422 6.778z" transform="translate(-107.524 -321.691)"/>
        <path id="Path_825" data-name="Path 825" class="cls-6" d="M139.8 322.072a11.905 11.905 0 0 0-10.475 2.341 11.549 11.549 0 0 0-4.067 9.859c.246 2.588 1.232 5.3.246 7.64a8.54 8.54 0 0 1-2.465 3.081c-2.834 2.588-5.915 5.176-8.133 8.38s-3.7 7.147-3.081 10.968a9.411 9.411 0 0 0 1.972 4.56 13.19 13.19 0 0 1 1.725 1.972c1.725 2.588.739 6.162 1.848 9.119 1.356 3.7 5.792 5.422 9.735 5.792 5.422.493 11.337-.616 15.4-4.313s5.545-10.351 2.465-14.911c-1.479-2.218-4.19-4.19-3.943-6.9.123-1.725 1.479-2.958 2.095-4.56a7.628 7.628 0 0 0-2.218-9.119 27.049 27.049 0 0 1-3.081-2.095 3.185 3.185 0 0 1-.986-3.327c.37-.863 1.356-1.356 1.848-2.218.616-1.232-.123-2.834-1.109-3.943s-2.095-2.218-2.218-3.574a4.838 4.838 0 0 1 .986-3.081c.986-1.848 1.972-3.82 2.958-5.669" transform="translate(-111.686 -321.692)"/>
      </g>
    </g>
    <path id="Path_826" data-name="Path 826" class="cls-12" d="M298.118 140.517h116.453s-6.162-31.794-36.969-24.153c0 0-22.8-64.45-45.226 0 0 0-19.1-31.917-34.258-32.163-32.656-.37-42.268 56.316 0 56.316z" transform="translate(62.698 19.537)"/>
    <path id="Path_827" data-name="Path 827" class="cls-12" d="M55.094 92.866h109.553s-5.792-29.945-34.747-22.674c0 0-21.442-60.63-42.515 0 0 0-17.992-30.068-32.286-30.192-30.689-.369-39.685 52.866-.005 52.866z" transform="translate(6.64 9.269)"/>
    <path id="Path_828" data-name="Path 828" class="cls-29" d="M359.062 67.292h62.6s-3.326-17.129-19.962-12.939c0 0-12.323-34.628-24.276 0 0 0-10.351-17.129-18.485-17.252-17.499-.247-22.551 30.191.123 30.191z" transform="translate(79.882 8.596)"/>
    <path id="Path_829" data-name="Path 829" class="cls-29" d="M20.022 128.743h33.4s-1.725-9.119-10.6-6.9c0 0-6.531-18.485-12.939 0 0 0-5.545-9.119-9.858-9.242-9.369-.124-12.08 16.142-.003 16.142z" transform="translate(2.772 26.135)"/>
    <path id="Path_830" data-name="Path 830" class="cls-29" d="M429.522 21.843h33.4s-1.725-9.119-10.6-6.9c0 0-6.531-18.485-12.939 0 0 0-5.545-9.119-9.858-9.242-9.369-.124-12.08 16.142-.003 16.142z" transform="translate(97.902 1.301)"/>
    <path id="Path_831" data-name="Path 831" class="cls-29" d="M99.062 30.292h62.6s-3.326-17.129-19.962-12.939c0 0-12.323-34.628-24.276 0 0 0-10.351-17.129-18.485-17.252-17.499-.37-22.551 30.191.123 30.191z" transform="translate(19.482)"/>
    <g id="Group_428" data-name="Group 428" transform="translate(.018 337.598)">
      <path id="Path_832" data-name="Path 832" class="cls-30" d="M46.577 401.673c-12.077 9.119-31.67.863-42.515-8.626a11.525 11.525 0 0 1-3.82-6.285c-2.464-11.83 16.144-14.662 16.637-25.262.246-4.56-3.2-8.5-5.792-12.323-5.915-8.749-7.517-19.84-6.285-30.315s5.176-20.456 9.735-29.945c3.7-7.764 10.475-16.636 18.854-14.664 5.422 1.232 8.873 6.531 10.475 11.953 2.218 7.271 1.848 15.157.37 22.674-.616 3.327-1.479 6.778-.616 9.982 2.341 8.38 14.048 10.228 18.238 17.745 4.313 7.64-.863 17.006-5.545 24.4-4.067 6.285-6.531 10.228-3.943 15.65a10.912 10.912 0 0 0 2.958 3.7c2.586 2.215 7.392 8.993-8.751 21.316z" transform="translate(-.018 -273.974)" style="fill: rgb(240, 133, 25);"/>
      <g id="Group_425" data-name="Group 425" transform="translate(32.511 58.444)">
        <path id="Path_833" data-name="Path 833" class="cls-24" d="M26.646 419.738c-.123 0-.246-22.058-.246-49.169s.123-49.169.246-49.169.246 22.058.246 49.169-.122 49.169-.246 49.169z" transform="translate(-26.4 -321.4)" style="fill: rgb(47, 57, 102);"/>
      </g>
      <g id="Group_426" data-name="Group 426" transform="translate(11.808 106.873)">
        <path id="Path_834" data-name="Path 834" class="cls-24" d="M28.947 375.488a5.636 5.636 0 0 1-.739-.493c-.493-.37-1.232-.986-2.095-1.6-1.725-1.356-4.067-3.327-6.778-5.3a335.09 335.09 0 0 0-6.9-5.176 18.124 18.124 0 0 1-2.095-1.6 7.534 7.534 0 0 1-.74-.619 3.41 3.41 0 0 1 .863.493q.739.555 2.218 1.479c1.848 1.232 4.313 2.958 7.024 5.052s5.052 3.943 6.654 5.422c.863.739 1.479 1.356 1.972 1.725s.739.617.616.617z" transform="translate(-9.6 -360.7)" style="fill: rgb(47, 57, 102);"/>
      </g>
      <g id="Group_427" data-name="Group 427" transform="translate(31.525 69.904)">
        <path id="Path_835" data-name="Path 835" class="cls-24" d="M40.141 330.7a33.211 33.211 0 0 1-2.095 2.711c-1.356 1.6-3.081 3.82-5.176 6.285-1.972 2.465-3.82 4.683-5.052 6.285a29.109 29.109 0 0 1-2.218 2.588 5.633 5.633 0 0 1 .493-.739c.37-.493.863-1.109 1.479-1.972 1.232-1.725 2.958-3.943 4.929-6.408a81.082 81.082 0 0 1 5.3-6.162 16.639 16.639 0 0 0 1.6-1.848z" transform="translate(-25.6 -330.7)" style="fill: rgb(47, 57, 102);"/>
      </g>
    </g>
    <g id="Group_435" data-name="Group 435" transform="translate(508.345 333.654)">
      <g id="Group_431" data-name="Group 431" transform="translate(38.788 54.108)">
        <path id="Path_837" data-name="Path 837" d="M472.838 393.7c-7.517 5.669-19.594.493-26.371-5.3a6.3 6.3 0 0 1-2.341-3.82c-1.479-7.271 9.982-9.119 10.351-15.65.123-2.834-1.972-5.176-3.574-7.64-3.574-5.422-4.683-12.323-3.82-18.731.739-6.531 3.2-12.693 6.038-18.608 2.341-4.806 6.408-10.228 11.707-9.119 3.327.739 5.545 4.067 6.531 7.394 1.356 4.56 1.109 9.366.246 14.048-.37 2.095-.986 4.19-.37 6.162 1.356 5.176 8.626 6.285 11.337 10.968 2.711 4.806-.493 10.475-3.45 15.157-2.465 3.943-4.067 6.408-2.465 9.735a11.042 11.042 0 0 0 1.848 2.341c1.357 1.228 4.314 5.418-5.667 13.063z" transform="translate(-443.993 -314.681)" style="fill: rgba(240, 133, 25, 0.6);"/>
        <g id="Group_430" data-name="Group 430" transform="translate(18 9.142)">
          <path id="Path_838" data-name="Path 838" class="cls-24" d="M458.846 420.438c-.123 0-.246-22.058-.246-49.169s.123-49.169.246-49.169.246 22.058.246 49.169-.122 49.169-.246 49.169z" transform="translate(-458.6 -322.1)"/>
        </g>
      </g>
      <path id="Path_839" data-name="Path 839" class="cls-30" d="M459.077 398.473c-12.077 9.119-31.67.863-42.515-8.626a11.525 11.525 0 0 1-3.82-6.285c-2.465-11.83 16.143-14.664 16.636-25.262.247-4.56-3.2-8.5-5.792-12.323-5.915-8.749-7.517-19.84-6.285-30.315s5.176-20.456 9.735-29.945c3.7-7.764 10.475-16.636 18.854-14.664 5.422 1.232 8.873 6.531 10.475 11.953 2.218 7.271 1.848 15.157.37 22.674-.616 3.327-1.479 6.778-.616 9.982 2.341 8.38 14.048 10.228 18.238 17.745 4.313 7.64-.863 17.006-5.669 24.4-4.067 6.285-6.531 10.228-3.943 15.65a10.912 10.912 0 0 0 2.958 3.7c2.711 2.343 7.517 9.116-8.626 21.316z" transform="translate(-412.518 -270.774)" style="fill: rgb(240, 133, 25);"/>
      <g id="Group_432" data-name="Group 432" transform="translate(32.511 58.444)">
        <path id="Path_840" data-name="Path 840" class="cls-24" d="M439.146 416.538c-.123 0-.247-22.058-.247-49.169s.123-49.169.247-49.169.246 22.058.246 49.169c.001 27.231-.122 49.169-.246 49.169z" transform="translate(-438.9 -318.2)" style="fill: rgb(47, 57, 102);"/>
      </g>
      <g id="Group_433" data-name="Group 433" transform="translate(13.41 106.997)">
        <path id="Path_841" data-name="Path 841" class="cls-24" d="M442.747 372.388a5.633 5.633 0 0 1-.739-.493c-.493-.37-1.232-.986-2.095-1.6-1.725-1.356-4.067-3.327-6.778-5.3a335.09 335.09 0 0 0-6.9-5.176 18.124 18.124 0 0 1-2.095-1.6 7.551 7.551 0 0 1-.739-.616 3.411 3.411 0 0 1 .863.493q.739.554 2.218 1.479c1.848 1.232 4.313 2.958 7.024 5.052s5.052 3.943 6.654 5.422c.863.739 1.479 1.356 1.972 1.725.368.244.615.49.615.614z" transform="translate(-423.4 -357.6)" style="fill: rgb(47, 57, 102);"/>
      </g>
      <g id="Group_434" data-name="Group 434" transform="translate(31.525 70.027)">
        <path id="Path_842" data-name="Path 842" class="cls-24" d="M452.641 327.6a33.211 33.211 0 0 1-2.095 2.711c-1.356 1.6-3.081 3.82-5.176 6.285-1.972 2.465-3.82 4.683-5.052 6.285a29.124 29.124 0 0 1-2.218 2.588 5.636 5.636 0 0 1 .493-.739c.37-.493.863-1.109 1.479-1.972 1.232-1.725 2.958-3.943 4.929-6.408a81.067 81.067 0 0 1 5.3-6.161 16.644 16.644 0 0 0 1.6-1.849z" transform="translate(-438.1 -327.6)" style="fill: rgb(47, 57, 102);"/>
      </g>
    </g>
    <g id="Group_436" data-name="Group 436" transform="translate(50.028 290.679)">
      <circle id="Ellipse_25" data-name="Ellipse 25" class="cls-33" cx="22.058" cy="22.058" r="22.058"/>
      <path id="Path_843" data-name="Path 843" class="cls-33" d="M65.9 270.464l10.721 3.327-.863-11.091z" transform="translate(-34.723 -229.674)"/>
      <text id="_" data-name="" transform="rotate(180 12.957 9.425)" fill="#f5f1eb" font-size="25" font-family="Helvetica" style="white-space: pre;"><tspan x="0" y="0"></tspan></text>
    </g>
    <g id="Group_439" data-name="Group 439" transform="translate(505.366 98.939)">
      <g id="Group_437" data-name="Group 437" transform="translate(0 2.211)">
        <path id="Path_844" data-name="Path 844" class="cls-35" d="M410.1 92.082s.739-.246 2.341-.739c1.725-.493 4.19-1.232 7.024-2.095 6.038-1.725 14.664-4.19 24.893-7.024l.493-.123.123.493c1.6 6.038 3.45 12.693 5.3 19.594.123-.123-.739 1.356-.37.739h-.246l-.246.123-.616.123-1.232.37a18.017 18.017 0 0 1-2.465.616c-1.6.493-3.2.863-4.806 1.232-3.081.863-6.162 1.6-9.119 2.465-5.792 1.479-11.091 2.958-15.774 4.19l-.37.123-.123-.37c-1.479-6.038-2.711-10.968-3.7-14.541-.37-1.6-.739-2.834-.986-3.943-.123-.863-.123-1.356-.123-1.232a7.946 7.946 0 0 1 .493 1.479c.37.986.739 2.341 1.232 3.943.986 3.574 2.341 8.38 4.067 14.172l-.493-.246c4.683-1.232 9.982-2.711 15.773-4.313 2.958-.739 5.915-1.6 9.119-2.465 1.6-.37 3.2-.863 4.806-1.232a18.016 18.016 0 0 1 2.465-.616l1.232-.37.616-.123.247-.123h.246c.37-.616-.493.863-.37.739-1.848-6.9-3.7-13.555-5.3-19.594l.616.37c-9.982 2.711-18.608 4.806-24.646 6.408-2.958.739-5.422 1.356-7.147 1.848a10.77 10.77 0 0 0-2.954.122z" transform="translate(-410.1 -82.1)"/>
      </g>
      <g id="Group_438" data-name="Group 438" transform="translate(.118 2.821)">
        <path id="Path_845" data-name="Path 845" class="cls-35" d="M444.582 82.6c.123.123-1.356 1.972-3.82 4.929s-5.915 7.024-9.858 11.46c-1.232.37-.37.123-.616.123h-.616l-.493-.123-.986-.37c-.739-.246-1.356-.493-1.972-.739-1.356-.493-2.588-.863-3.82-1.356-2.341-.863-4.436-1.6-6.408-2.218-3.7-1.356-5.915-2.218-5.792-2.341a41.922 41.922 0 0 1 6.038 1.6c1.972.616 4.19 1.356 6.531 2.095 1.232.37 2.465.863 3.82 1.232a12.113 12.113 0 0 0 1.972.616l.986.37.493.123.246.123h.246c-.246.123.616-.123-.616.123 3.943-4.436 7.517-8.38 10.1-11.337 2.717-2.71 4.442-4.432 4.565-4.31z" transform="translate(-410.196 -82.595)"/>
      </g>
      <path id="Path_846" data-name="Path 846" d="M443.116 83.133a3.826 3.826 0 1 1-4.683-2.711 3.89 3.89 0 0 1 4.683 2.711z" transform="translate(-404.175 -80.306)" fill="#f19e36"/>
    </g>
    <g id="Group_442" data-name="Group 442" transform="translate(33.884 208.484)">
      <g id="Group_440" data-name="Group 440">
        <path id="Path_847" data-name="Path 847" class="cls-35" d="M33.045 169.2s.863.123 2.341.493c1.725.493 4.067.986 6.9 1.725 5.915 1.479 14.418 3.7 24.276 6.285l.493.123-.123.493c-1.6 5.915-3.327 12.323-5.052 19.1.123-.123-1.232.739-.739.37H60.9l-.246-.123-.616-.123-1.232-.37c-.739-.246-1.6-.37-2.341-.616-1.6-.37-3.081-.863-4.56-1.232-3.081-.863-5.915-1.6-8.749-2.341-5.545-1.6-10.721-2.958-15.281-4.19l-.37-.123.123-.37c1.6-5.792 2.958-10.475 4.067-13.925q.739-2.218 1.109-3.7a8.518 8.518 0 0 1 .246-1.479 13.942 13.942 0 0 0-.246 1.479c-.246.986-.616 2.341-.986 3.82-.863 3.45-2.095 8.133-3.45 13.8l-.246-.493a1785.84 1785.84 0 0 0 15.281 4.067c2.834.739 5.792 1.6 8.749 2.341 1.479.37 3.081.863 4.56 1.232.739.246 1.6.37 2.341.616l1.232.37.616.123.246.123h.246c.616-.37-.863.493-.616.37 1.848-6.778 3.574-13.186 5.176-18.978l.37.616c-9.612-2.711-17.868-5.052-23.784-6.654-2.834-.863-5.176-1.479-6.9-1.972-1.608-.487-2.47-.857-2.594-.857z" transform="translate(-27.5 -169.2)"/>
      </g>
      <g id="Group_441" data-name="Group 441" transform="translate(5.414 .117)">
        <path id="Path_848" data-name="Path 848" class="cls-35" d="M65.42 178.174a43.859 43.859 0 0 1-5.669 2.341c-3.574 1.232-8.38 2.958-13.925 4.806-1.232-.37-.37-.123-.616-.123l-.123-.123-.123-.246-.37-.37-.739-.739a18.436 18.436 0 0 1-1.356-1.6l-2.588-2.958c-1.6-1.848-2.958-3.574-4.313-5.052-2.465-2.834-3.82-4.683-3.7-4.806s1.725 1.6 4.313 4.313c1.356 1.479 2.834 3.081 4.436 4.929.863.986 1.725 1.848 2.588 2.958a18.436 18.436 0 0 1 1.356 1.6l.739.739.37.37.123.246.123.123c-.246-.123.616.123-.616-.123a561.067 561.067 0 0 1 13.925-4.56 43.024 43.024 0 0 1 6.165-1.725z" transform="translate(-31.894 -169.295)"/>
      </g>
    </g>
    <g id="Group_454" data-name="Group 454" transform="translate(500.313 217.84)">
      <g id="Group_443" data-name="Group 443" transform="translate(1.849 2.212)">
        <path id="Path_849" data-name="Path 849" class="cls-35" d="M467.39 208.3a48.7 48.7 0 0 0-1.109-7.147 26.657 26.657 0 0 0-3.327-7.764 29.176 29.176 0 0 0-7.517-8.256 29.645 29.645 0 0 0-12.323-5.422 29.057 29.057 0 0 0-15.4 1.356 26.843 26.843 0 0 0-7.394 3.943 27.4 27.4 0 0 0-6.162 6.162 29.088 29.088 0 0 0 0 34.5 38.377 38.377 0 0 0 2.834 3.45 36.7 36.7 0 0 0 3.327 2.834 26.843 26.843 0 0 0 7.394 3.943 30.347 30.347 0 0 0 15.4 1.356 29.645 29.645 0 0 0 12.323-5.422 29.176 29.176 0 0 0 7.517-8.256 30.524 30.524 0 0 0 3.327-7.764 39.735 39.735 0 0 0 1.109-7.517v1.848a8.851 8.851 0 0 1-.246 2.341 16.978 16.978 0 0 1-.616 3.081 27.061 27.061 0 0 1-3.2 8.01 29.9 29.9 0 0 1-7.517 8.5 28.776 28.776 0 0 1-12.57 5.669 30.335 30.335 0 0 1-15.773-1.232 26.874 26.874 0 0 1-7.64-4.067 38.362 38.362 0 0 1-3.451-2.834 39.651 39.651 0 0 1-2.958-3.45 30.652 30.652 0 0 1-5.915-17.745 29 29 0 0 1 5.915-17.745 39.654 39.654 0 0 1 2.958-3.45 24.79 24.79 0 0 1 3.451-2.834 26.875 26.875 0 0 1 7.64-4.067 30.335 30.335 0 0 1 15.773-1.232 28.775 28.775 0 0 1 12.57 5.669 31.641 31.641 0 0 1 7.517 8.5 27.061 27.061 0 0 1 3.2 8.01 16.978 16.978 0 0 1 .616 3.081 18.985 18.985 0 0 1 .246 2.341v1.6z" transform="translate(-407.5 -178.587)"/>
      </g>
      <g id="Group_444" data-name="Group 444">
        <path id="Path_850" data-name="Path 850" class="cls-35" d="M469.957 208.719a1.943 1.943 0 0 0-.123-.493c0-.37-.123-.863-.123-1.479a23.526 23.526 0 0 0-.246-2.465 12.6 12.6 0 0 0-.739-3.327 30.957 30.957 0 0 0-3.574-8.38 31.357 31.357 0 0 0-8.01-8.873 29.985 29.985 0 0 0-13.186-5.792 31.889 31.889 0 0 0-16.513 1.356 29 29 0 0 0-7.887 4.313 39.762 39.762 0 0 0-3.574 3.081 22.3 22.3 0 0 0-3.081 3.7 31.3 31.3 0 0 0-6.038 18.485 32.4 32.4 0 0 0 1.6 9.858 30.093 30.093 0 0 0 4.436 8.626 28.832 28.832 0 0 0 3.081 3.7 42.73 42.73 0 0 0 3.574 3.081 30.935 30.935 0 0 0 7.887 4.313 31.889 31.889 0 0 0 16.513 1.356 30.775 30.775 0 0 0 13.186-5.792 33.1 33.1 0 0 0 8.01-8.873 30.957 30.957 0 0 0 3.574-8.38c.37-1.232.493-2.341.739-3.327a9.246 9.246 0 0 0 .246-2.465c0-.616.123-1.109.123-1.479 0-.616 0-.739.123-.739v1.972a9.712 9.712 0 0 1-.246 2.465 19.288 19.288 0 0 1-.616 3.327 27.382 27.382 0 0 1-3.45 8.5 30.819 30.819 0 0 1-8.133 9.119 31.84 31.84 0 0 1-30.315 4.683 30.38 30.38 0 0 1-8.133-4.313 28.823 28.823 0 0 1-3.7-3.081 45.927 45.927 0 0 1-3.2-3.7 30.3 30.3 0 0 1-4.56-8.873 30.981 30.981 0 0 1-1.6-10.1 31.992 31.992 0 0 1 9.489-22.674 28.827 28.827 0 0 1 3.7-3.081 32.349 32.349 0 0 1 8.133-4.313 33.288 33.288 0 0 1 16.883-1.356 32.063 32.063 0 0 1 13.432 6.038 34.441 34.441 0 0 1 8.133 9.119 27.382 27.382 0 0 1 3.45 8.5 19.288 19.288 0 0 1 .616 3.327 23.526 23.526 0 0 1 .246 2.465v1.479a1.228 1.228 0 0 0-.127.492z" transform="translate(-406 -176.792)"/>
      </g>
      <g id="Group_445" data-name="Group 445" transform="translate(31.794 2.228)">
        <path id="Path_851" data-name="Path 851" class="cls-35" d="M432.17 184.762c-.247 0-.37-1.356-.37-3.081a8.224 8.224 0 0 1 .37-3.081c.246 0 .37 1.356.37 3.081s-.124 3.081-.37 3.081z" transform="translate(-431.8 -178.6)"/>
      </g>
      <g id="Group_446" data-name="Group 446" transform="translate(11.783 10.35)">
        <path id="Path_852" data-name="Path 852" class="cls-35" d="M419.552 189.885c-.123.123-1.232-.739-2.341-2.095s-1.848-2.465-1.6-2.588c.123-.123 1.232.739 2.341 2.095a7.468 7.468 0 0 1 1.6 2.588z" transform="translate(-415.561 -185.191)"/>
      </g>
      <g id="Group_447" data-name="Group 447" transform="translate(48.998 47.688)">
        <path id="Path_853" data-name="Path 853" class="cls-35" d="M449.752 220.185c-.123.123-1.232-.739-2.341-2.095s-1.848-2.465-1.6-2.588c.123-.123 1.232.739 2.341 2.095 1.107 1.232 1.848 2.342 1.6 2.588z" transform="translate(-445.761 -215.491)"/>
      </g>
      <g id="Group_448" data-name="Group 448" transform="translate(55.577 31.557)">
        <path id="Path_854" data-name="Path 854" class="cls-35" d="M451.1 202.77c0-.246 1.356-.37 3.081-.37a8.224 8.224 0 0 1 3.081.37c0 .246-1.356.37-3.081.37a8.225 8.225 0 0 1-3.081-.37z" transform="translate(-451.1 -202.4)"/>
      </g>
      <g id="Group_449" data-name="Group 449" transform="translate(2.341 31.557)">
        <path id="Path_855" data-name="Path 855" class="cls-35" d="M407.9 202.77c0-.246 1.356-.37 3.081-.37a8.224 8.224 0 0 1 3.081.37c0 .246-1.356.37-3.081.37a8.224 8.224 0 0 1-3.081-.37z" transform="translate(-407.9 -202.4)"/>
      </g>
      <g id="Group_450" data-name="Group 450" transform="translate(31.794 55.34)">
        <path id="Path_856" data-name="Path 856" class="cls-35" d="M432.17 227.862c-.247 0-.37-1.356-.37-3.081a8.224 8.224 0 0 1 .37-3.081c.246 0 .37 1.356.37 3.081s-.124 3.081-.37 3.081z" transform="translate(-431.8 -221.7)"/>
      </g>
      <g id="Group_451" data-name="Group 451" transform="translate(9.477 46.913)">
        <path id="Path_857" data-name="Path 857" class="cls-35" d="M418.385 214.909c.123.123-.739 1.232-2.095 2.341s-2.465 1.848-2.588 1.6c-.123-.123.739-1.232 2.095-2.341 1.232-1.109 2.465-1.847 2.588-1.6z" transform="translate(-413.69 -214.861)"/>
      </g>
      <g id="Group_452" data-name="Group 452" transform="translate(48.788 10.683)">
        <path id="Path_858" data-name="Path 858" class="cls-35" d="M450.285 185.509c.123.123-.739 1.232-2.095 2.341s-2.465 1.848-2.588 1.6c-.123-.123.739-1.232 2.095-2.341 1.232-1.109 2.342-1.847 2.588-1.6z" transform="translate(-445.59 -185.461)"/>
      </g>
      <g id="Group_453" data-name="Group 453" transform="translate(30.068 15.537)">
        <path id="Path_859" data-name="Path 859" class="cls-35" d="M444.079 210.6c0 .123-1.356.246-3.82.246-2.341.123-5.669.123-9.489.123h-.37v-4.313c0-4.806 0-9.119.123-12.2a45.04 45.04 0 0 1 .246-5.052 24.818 24.818 0 0 1 .247 5.052c.123 3.081.123 7.394.123 12.2v3.944l-.37-.37c3.82 0 7.147.123 9.489.123 2.342.119 3.821.247 3.821.247z" transform="translate(-430.4 -189.4)"/>
      </g>
    </g>
    <g id="Group_455" data-name="Group 455" transform="translate(168.151 129.123)">
      <path id="Path_860" data-name="Path 860" class="cls-35" d="M142.672 105.17a17.871 17.871 0 0 0-1.972.493 5.819 5.819 0 0 0-3.574 3.82 12.743 12.743 0 0 0-.246 3.82v4.683a15.71 15.71 0 0 0 .12 2.464 5.853 5.853 0 0 0 5.669 4.806h.37v5.176l-.616-.246c1.848-1.6 3.7-3.2 5.669-4.806l.123-.123h12.695a7.2 7.2 0 0 0 2.341-.246 5.629 5.629 0 0 0 3.45-2.834 5.91 5.91 0 0 0 .616-2.095v-6.9a11.584 11.584 0 0 0-.37-4.19 6.2 6.2 0 0 0-2.465-2.834 7.183 7.183 0 0 0-3.574-.739h-3.574c-4.436 0-8.01-.123-10.6-.123a18.283 18.283 0 0 1-2.834-.123h-1.232a5.583 5.583 0 0 0 .986-.123 24.835 24.835 0 0 0 2.834-.123c2.588 0 6.162-.123 10.6-.123h3.574a7.084 7.084 0 0 1 3.82.739 6.3 6.3 0 0 1 2.834 3.081 7.2 7.2 0 0 1 .493 2.218v9.119a5.609 5.609 0 0 1-.616 2.465 6.776 6.776 0 0 1-3.82 3.327 9.227 9.227 0 0 1-2.588.246h-12.57l.246-.123c-1.972 1.6-3.82 3.327-5.669 4.806l-.616.493v-.739c0-1.725 0-3.327.123-4.806l.37.37a5.9 5.9 0 0 1-5.176-2.834 7.455 7.455 0 0 1-.986-2.588 18.113 18.113 0 0 1 0-2.588v-4.69a10.017 10.017 0 0 1 .37-3.943 6.441 6.441 0 0 1 3.943-3.943 2.745 2.745 0 0 1 1.852-.244z" transform="translate(-136.456 -104.8)"/>
    </g>
  </g>
</svg>